ISO-10303-21;
HEADER;
/* Generated by software containing ST-Developer
 * from STEP Tools, Inc. (www.steptools.com) 
 */
/* OPTION: strings as raw bytes, not using required /X/ escapes */

FILE_DESCRIPTION(
/* description */ ('Unknown'),
/* implementation_level */ '2;1');

FILE_NAME(
/* name */ '150120RS75000',
/* time_stamp */ '2022-11-17T15:58:13+02:00',
/* author */ ('Unknown'),
/* organization */ ('Unknown'),
/* preprocessor_version */ 'ST-DEVELOPER v18.102',
/* originating_system */ 'Solid Edge',
/* authorisation */ 'Unknown');

FILE_SCHEMA (('AUTOMOTIVE_DESIGN {1 0 10303 214 3 1 1}'));
ENDSEC;

DATA;
#10=PROPERTY_DEFINITION_REPRESENTATION(#14,#12);
#11=PROPERTY_DEFINITION_REPRESENTATION(#15,#13);
#12=REPRESENTATION('',(#16),#1150);
#13=REPRESENTATION('',(#17),#1150);
#14=PROPERTY_DEFINITION('pmi validation property','',#1155);
#15=PROPERTY_DEFINITION('pmi validation property','',#1155);
#16=VALUE_REPRESENTATION_ITEM('number of annotations',COUNT_MEASURE(0.));
#17=VALUE_REPRESENTATION_ITEM('number of views',COUNT_MEASURE(0.));
#18=SHAPE_REPRESENTATION_RELATIONSHIP('','',#792,#19);
#19=ADVANCED_BREP_SHAPE_REPRESENTATION('',(#790),#1150);
#20=SPHERICAL_SURFACE('',#819,0.04);
#21=SPHERICAL_SURFACE('',#826,0.04);
#22=SPHERICAL_SURFACE('',#829,0.04);
#23=SPHERICAL_SURFACE('',#838,0.04);
#24=SURFACE_STYLE_RENDERING_WITH_PROPERTIES(.CONSTANT_SHADING.,#756,(#41));
#25=SURFACE_STYLE_RENDERING_WITH_PROPERTIES(.CONSTANT_SHADING.,#756,(#42));
#26=SURFACE_STYLE_RENDERING_WITH_PROPERTIES(.CONSTANT_SHADING.,#756,(#43));
#27=SURFACE_STYLE_RENDERING_WITH_PROPERTIES(.CONSTANT_SHADING.,#756,(#44));
#28=SURFACE_STYLE_RENDERING_WITH_PROPERTIES(.CONSTANT_SHADING.,#756,(#45));
#29=SURFACE_STYLE_RENDERING_WITH_PROPERTIES(.CONSTANT_SHADING.,#756,(#46));
#30=SURFACE_STYLE_RENDERING_WITH_PROPERTIES(.CONSTANT_SHADING.,#756,(#47));
#31=SURFACE_STYLE_RENDERING_WITH_PROPERTIES(.CONSTANT_SHADING.,#756,(#48));
#32=SURFACE_STYLE_RENDERING_WITH_PROPERTIES(.CONSTANT_SHADING.,#756,(#49));
#33=SURFACE_STYLE_RENDERING_WITH_PROPERTIES(.CONSTANT_SHADING.,#756,(#50));
#34=SURFACE_STYLE_RENDERING_WITH_PROPERTIES(.CONSTANT_SHADING.,#756,(#51));
#35=SURFACE_STYLE_RENDERING_WITH_PROPERTIES(.CONSTANT_SHADING.,#756,(#52));
#36=SURFACE_STYLE_RENDERING_WITH_PROPERTIES(.CONSTANT_SHADING.,#756,(#53));
#37=SURFACE_STYLE_RENDERING_WITH_PROPERTIES(.CONSTANT_SHADING.,#756,(#54));
#38=SURFACE_STYLE_RENDERING_WITH_PROPERTIES(.CONSTANT_SHADING.,#756,(#55));
#39=SURFACE_STYLE_RENDERING_WITH_PROPERTIES(.CONSTANT_SHADING.,#756,(#56));
#40=SURFACE_STYLE_RENDERING_WITH_PROPERTIES(.CONSTANT_SHADING.,#756,(#57));
#41=SURFACE_STYLE_TRANSPARENT(0.733333349227905);
#42=SURFACE_STYLE_TRANSPARENT(0.733333349227905);
#43=SURFACE_STYLE_TRANSPARENT(0.733333349227905);
#44=SURFACE_STYLE_TRANSPARENT(0.733333349227905);
#45=SURFACE_STYLE_TRANSPARENT(0.733333349227905);
#46=SURFACE_STYLE_TRANSPARENT(0.733333349227905);
#47=SURFACE_STYLE_TRANSPARENT(0.733333349227905);
#48=SURFACE_STYLE_TRANSPARENT(0.733333349227905);
#49=SURFACE_STYLE_TRANSPARENT(0.733333349227905);
#50=SURFACE_STYLE_TRANSPARENT(0.733333349227905);
#51=SURFACE_STYLE_TRANSPARENT(0.733333349227905);
#52=SURFACE_STYLE_TRANSPARENT(0.733333349227905);
#53=SURFACE_STYLE_TRANSPARENT(0.733333349227905);
#54=SURFACE_STYLE_TRANSPARENT(0.733333349227905);
#55=SURFACE_STYLE_TRANSPARENT(0.733333349227905);
#56=SURFACE_STYLE_TRANSPARENT(0.733333349227905);
#57=SURFACE_STYLE_TRANSPARENT(0.733333349227905);
#58=CYLINDRICAL_SURFACE('',#815,0.375);
#59=CYLINDRICAL_SURFACE('',#816,0.375);
#60=CYLINDRICAL_SURFACE('',#817,0.04);
#61=CYLINDRICAL_SURFACE('',#822,0.04);
#62=CYLINDRICAL_SURFACE('',#824,0.04);
#63=CYLINDRICAL_SURFACE('',#832,0.04);
#64=CYLINDRICAL_SURFACE('',#833,0.04);
#65=CYLINDRICAL_SURFACE('',#835,0.04);
#66=CYLINDRICAL_SURFACE('',#837,0.04);
#67=CYLINDRICAL_SURFACE('',#840,0.04);
#68=CIRCLE('',#797,0.375);
#69=CIRCLE('',#803,0.375);
#70=CIRCLE('',#813,0.375);
#71=CIRCLE('',#814,0.375);
#72=CIRCLE('',#818,0.04);
#73=CIRCLE('',#820,0.04);
#74=CIRCLE('',#821,0.04);
#75=CIRCLE('',#823,0.04);
#76=CIRCLE('',#825,0.04);
#77=CIRCLE('',#827,0.04);
#78=CIRCLE('',#828,0.04);
#79=CIRCLE('',#830,0.04);
#80=CIRCLE('',#831,0.04);
#81=CIRCLE('',#834,0.04);
#82=CIRCLE('',#836,0.04);
#83=CIRCLE('',#839,0.04);
#84=ELLIPSE('',#795,0.0401097125526227,0.04);
#85=ELLIPSE('',#796,0.0401097125526227,0.04);
#86=ELLIPSE('',#801,0.0401097125526227,0.04);
#87=ELLIPSE('',#802,0.0401097125526227,0.04);
#88=ORIENTED_EDGE('',*,*,#230,.T.);
#89=ORIENTED_EDGE('',*,*,#231,.T.);
#90=ORIENTED_EDGE('',*,*,#232,.F.);
#91=ORIENTED_EDGE('',*,*,#233,.T.);
#92=ORIENTED_EDGE('',*,*,#234,.F.);
#93=ORIENTED_EDGE('',*,*,#235,.T.);
#94=ORIENTED_EDGE('',*,*,#236,.T.);
#95=ORIENTED_EDGE('',*,*,#237,.F.);
#96=ORIENTED_EDGE('',*,*,#238,.T.);
#97=ORIENTED_EDGE('',*,*,#239,.T.);
#98=ORIENTED_EDGE('',*,*,#240,.F.);
#99=ORIENTED_EDGE('',*,*,#241,.F.);
#100=ORIENTED_EDGE('',*,*,#242,.T.);
#101=ORIENTED_EDGE('',*,*,#231,.F.);
#102=ORIENTED_EDGE('',*,*,#243,.T.);
#103=ORIENTED_EDGE('',*,*,#238,.F.);
#104=ORIENTED_EDGE('',*,*,#230,.F.);
#105=ORIENTED_EDGE('',*,*,#244,.T.);
#106=ORIENTED_EDGE('',*,*,#245,.F.);
#107=ORIENTED_EDGE('',*,*,#246,.T.);
#108=ORIENTED_EDGE('',*,*,#247,.F.);
#109=ORIENTED_EDGE('',*,*,#241,.T.);
#110=ORIENTED_EDGE('',*,*,#248,.T.);
#111=ORIENTED_EDGE('',*,*,#249,.F.);
#112=ORIENTED_EDGE('',*,*,#250,.T.);
#113=ORIENTED_EDGE('',*,*,#251,.T.);
#114=ORIENTED_EDGE('',*,*,#252,.F.);
#115=ORIENTED_EDGE('',*,*,#253,.F.);
#116=ORIENTED_EDGE('',*,*,#254,.F.);
#117=ORIENTED_EDGE('',*,*,#255,.F.);
#118=ORIENTED_EDGE('',*,*,#256,.F.);
#119=ORIENTED_EDGE('',*,*,#253,.T.);
#120=ORIENTED_EDGE('',*,*,#257,.T.);
#121=ORIENTED_EDGE('',*,*,#258,.F.);
#122=ORIENTED_EDGE('',*,*,#259,.F.);
#123=ORIENTED_EDGE('',*,*,#254,.T.);
#124=ORIENTED_EDGE('',*,*,#256,.T.);
#125=ORIENTED_EDGE('',*,*,#260,.F.);
#126=ORIENTED_EDGE('',*,*,#257,.F.);
#127=ORIENTED_EDGE('',*,*,#252,.T.);
#128=ORIENTED_EDGE('',*,*,#259,.T.);
#129=ORIENTED_EDGE('',*,*,#261,.F.);
#130=ORIENTED_EDGE('',*,*,#235,.F.);
#131=ORIENTED_EDGE('',*,*,#262,.T.);
#132=ORIENTED_EDGE('',*,*,#251,.F.);
#133=ORIENTED_EDGE('',*,*,#263,.T.);
#134=ORIENTED_EDGE('',*,*,#264,.T.);
#135=ORIENTED_EDGE('',*,*,#265,.T.);
#136=ORIENTED_EDGE('',*,*,#266,.T.);
#137=ORIENTED_EDGE('',*,*,#263,.F.);
#138=ORIENTED_EDGE('',*,*,#250,.F.);
#139=ORIENTED_EDGE('',*,*,#267,.T.);
#140=ORIENTED_EDGE('',*,*,#268,.F.);
#141=ORIENTED_EDGE('',*,*,#248,.F.);
#142=ORIENTED_EDGE('',*,*,#240,.T.);
#143=ORIENTED_EDGE('',*,*,#269,.T.);
#144=ORIENTED_EDGE('',*,*,#270,.F.);
#145=ORIENTED_EDGE('',*,*,#236,.F.);
#146=ORIENTED_EDGE('',*,*,#261,.T.);
#147=ORIENTED_EDGE('',*,*,#266,.F.);
#148=ORIENTED_EDGE('',*,*,#271,.T.);
#149=ORIENTED_EDGE('',*,*,#267,.F.);
#150=ORIENTED_EDGE('',*,*,#239,.F.);
#151=ORIENTED_EDGE('',*,*,#243,.F.);
#152=ORIENTED_EDGE('',*,*,#272,.T.);
#153=ORIENTED_EDGE('',*,*,#269,.F.);
#154=ORIENTED_EDGE('',*,*,#264,.F.);
#155=ORIENTED_EDGE('',*,*,#260,.T.);
#156=ORIENTED_EDGE('',*,*,#258,.T.);
#157=ORIENTED_EDGE('',*,*,#255,.T.);
#158=ORIENTED_EDGE('',*,*,#237,.T.);
#159=ORIENTED_EDGE('',*,*,#270,.T.);
#160=ORIENTED_EDGE('',*,*,#272,.F.);
#161=ORIENTED_EDGE('',*,*,#244,.F.);
#162=ORIENTED_EDGE('',*,*,#249,.T.);
#163=ORIENTED_EDGE('',*,*,#268,.T.);
#164=ORIENTED_EDGE('',*,*,#271,.F.);
#165=ORIENTED_EDGE('',*,*,#265,.F.);
#166=ORIENTED_EDGE('',*,*,#273,.F.);
#167=ORIENTED_EDGE('',*,*,#274,.F.);
#168=ORIENTED_EDGE('',*,*,#245,.T.);
#169=ORIENTED_EDGE('',*,*,#275,.T.);
#170=ORIENTED_EDGE('',*,*,#276,.T.);
#171=ORIENTED_EDGE('',*,*,#277,.T.);
#172=ORIENTED_EDGE('',*,*,#273,.T.);
#173=ORIENTED_EDGE('',*,*,#278,.F.);
#174=ORIENTED_EDGE('',*,*,#279,.T.);
#175=ORIENTED_EDGE('',*,*,#276,.F.);
#176=ORIENTED_EDGE('',*,*,#280,.T.);
#177=ORIENTED_EDGE('',*,*,#281,.F.);
#178=ORIENTED_EDGE('',*,*,#282,.T.);
#179=ORIENTED_EDGE('',*,*,#277,.F.);
#180=ORIENTED_EDGE('',*,*,#283,.T.);
#181=ORIENTED_EDGE('',*,*,#284,.T.);
#182=ORIENTED_EDGE('',*,*,#285,.T.);
#183=ORIENTED_EDGE('',*,*,#278,.T.);
#184=ORIENTED_EDGE('',*,*,#286,.T.);
#185=ORIENTED_EDGE('',*,*,#287,.T.);
#186=ORIENTED_EDGE('',*,*,#281,.T.);
#187=ORIENTED_EDGE('',*,*,#234,.T.);
#188=ORIENTED_EDGE('',*,*,#288,.T.);
#189=ORIENTED_EDGE('',*,*,#284,.F.);
#190=ORIENTED_EDGE('',*,*,#289,.F.);
#191=ORIENTED_EDGE('',*,*,#290,.F.);
#192=ORIENTED_EDGE('',*,*,#291,.T.);
#193=ORIENTED_EDGE('',*,*,#285,.F.);
#194=ORIENTED_EDGE('',*,*,#292,.T.);
#195=ORIENTED_EDGE('',*,*,#293,.F.);
#196=ORIENTED_EDGE('',*,*,#294,.T.);
#197=ORIENTED_EDGE('',*,*,#286,.F.);
#198=ORIENTED_EDGE('',*,*,#295,.T.);
#199=ORIENTED_EDGE('',*,*,#247,.T.);
#200=ORIENTED_EDGE('',*,*,#296,.T.);
#201=ORIENTED_EDGE('',*,*,#287,.F.);
#202=ORIENTED_EDGE('',*,*,#297,.F.);
#203=ORIENTED_EDGE('',*,*,#290,.T.);
#204=ORIENTED_EDGE('',*,*,#298,.T.);
#205=ORIENTED_EDGE('',*,*,#293,.T.);
#206=ORIENTED_EDGE('',*,*,#298,.F.);
#207=ORIENTED_EDGE('',*,*,#299,.F.);
#208=ORIENTED_EDGE('',*,*,#232,.T.);
#209=ORIENTED_EDGE('',*,*,#300,.T.);
#210=ORIENTED_EDGE('',*,*,#283,.F.);
#211=ORIENTED_EDGE('',*,*,#279,.F.);
#212=ORIENTED_EDGE('',*,*,#291,.F.);
#213=ORIENTED_EDGE('',*,*,#295,.F.);
#214=ORIENTED_EDGE('',*,*,#280,.F.);
#215=ORIENTED_EDGE('',*,*,#275,.F.);
#216=ORIENTED_EDGE('',*,*,#262,.F.);
#217=ORIENTED_EDGE('',*,*,#289,.T.);
#218=ORIENTED_EDGE('',*,*,#246,.F.);
#219=ORIENTED_EDGE('',*,*,#274,.T.);
#220=ORIENTED_EDGE('',*,*,#282,.F.);
#221=ORIENTED_EDGE('',*,*,#296,.F.);
#222=ORIENTED_EDGE('',*,*,#242,.F.);
#223=ORIENTED_EDGE('',*,*,#297,.T.);
#224=ORIENTED_EDGE('',*,*,#294,.F.);
#225=ORIENTED_EDGE('',*,*,#300,.F.);
#226=ORIENTED_EDGE('',*,*,#292,.F.);
#227=ORIENTED_EDGE('',*,*,#288,.F.);
#228=ORIENTED_EDGE('',*,*,#233,.F.);
#229=ORIENTED_EDGE('',*,*,#299,.T.);
#230=EDGE_CURVE('',#301,#302,#343,.T.);
#231=EDGE_CURVE('',#302,#303,#344,.T.);
#232=EDGE_CURVE('',#304,#303,#84,.T.);
#233=EDGE_CURVE('',#304,#305,#345,.T.);
#234=EDGE_CURVE('',#306,#305,#85,.T.);
#235=EDGE_CURVE('',#306,#307,#346,.T.);
#236=EDGE_CURVE('',#307,#308,#347,.T.);
#237=EDGE_CURVE('',#301,#308,#68,.T.);
#238=EDGE_CURVE('',#302,#309,#348,.T.);
#239=EDGE_CURVE('',#309,#310,#349,.T.);
#240=EDGE_CURVE('',#311,#310,#350,.T.);
#241=EDGE_CURVE('',#312,#311,#351,.T.);
#242=EDGE_CURVE('',#312,#303,#352,.T.);
#243=EDGE_CURVE('',#313,#309,#353,.T.);
#244=EDGE_CURVE('',#301,#313,#354,.T.);
#245=EDGE_CURVE('',#314,#315,#86,.T.);
#246=EDGE_CURVE('',#314,#316,#355,.T.);
#247=EDGE_CURVE('',#312,#316,#87,.T.);
#248=EDGE_CURVE('',#311,#317,#356,.T.);
#249=EDGE_CURVE('',#318,#317,#69,.T.);
#250=EDGE_CURVE('',#318,#319,#357,.T.);
#251=EDGE_CURVE('',#319,#315,#358,.T.);
#252=EDGE_CURVE('',#320,#321,#359,.T.);
#253=EDGE_CURVE('',#322,#320,#360,.T.);
#254=EDGE_CURVE('',#321,#322,#361,.T.);
#255=EDGE_CURVE('',#323,#324,#362,.T.);
#256=EDGE_CURVE('',#322,#323,#363,.T.);
#257=EDGE_CURVE('',#320,#324,#364,.T.);
#258=EDGE_CURVE('',#325,#323,#365,.T.);
#259=EDGE_CURVE('',#321,#325,#366,.T.);
#260=EDGE_CURVE('',#324,#325,#367,.T.);
#261=EDGE_CURVE('',#307,#326,#368,.T.);
#262=EDGE_CURVE('',#306,#315,#369,.T.);
#263=EDGE_CURVE('',#319,#327,#370,.T.);
#264=EDGE_CURVE('',#327,#326,#371,.T.);
#265=EDGE_CURVE('',#318,#328,#372,.T.);
#266=EDGE_CURVE('',#328,#327,#373,.T.);
#267=EDGE_CURVE('',#310,#329,#374,.T.);
#268=EDGE_CURVE('',#317,#329,#375,.T.);
#269=EDGE_CURVE('',#326,#330,#376,.T.);
#270=EDGE_CURVE('',#308,#330,#377,.T.);
#271=EDGE_CURVE('',#328,#329,#70,.T.);
#272=EDGE_CURVE('',#313,#330,#71,.T.);
#273=EDGE_CURVE('',#331,#332,#72,.T.);
#274=EDGE_CURVE('',#314,#331,#378,.T.);
#275=EDGE_CURVE('',#315,#332,#379,.T.);
#276=EDGE_CURVE('',#332,#333,#73,.T.);
#277=EDGE_CURVE('',#333,#331,#74,.T.);
#278=EDGE_CURVE('',#334,#335,#75,.T.);
#279=EDGE_CURVE('',#334,#333,#380,.T.);
#280=EDGE_CURVE('',#332,#335,#381,.T.);
#281=EDGE_CURVE('',#336,#337,#76,.T.);
#282=EDGE_CURVE('',#336,#331,#382,.T.);
#283=EDGE_CURVE('',#333,#337,#383,.T.);
#284=EDGE_CURVE('',#335,#338,#77,.T.);
#285=EDGE_CURVE('',#338,#334,#78,.T.);
#286=EDGE_CURVE('',#337,#339,#79,.T.);
#287=EDGE_CURVE('',#339,#336,#80,.T.);
#288=EDGE_CURVE('',#305,#338,#384,.T.);
#289=EDGE_CURVE('',#306,#335,#385,.T.);
#290=EDGE_CURVE('',#340,#341,#81,.T.);
#291=EDGE_CURVE('',#340,#334,#386,.T.);
#292=EDGE_CURVE('',#338,#341,#387,.T.);
#293=EDGE_CURVE('',#342,#340,#82,.T.);
#294=EDGE_CURVE('',#342,#339,#388,.T.);
#295=EDGE_CURVE('',#337,#340,#389,.T.);
#296=EDGE_CURVE('',#316,#336,#390,.T.);
#297=EDGE_CURVE('',#312,#339,#391,.T.);
#298=EDGE_CURVE('',#341,#342,#83,.T.);
#299=EDGE_CURVE('',#304,#341,#392,.T.);
#300=EDGE_CURVE('',#303,#342,#393,.T.);
#301=VERTEX_POINT('',#1006);
#302=VERTEX_POINT('',#1007);
#303=VERTEX_POINT('',#1009);
#304=VERTEX_POINT('',#1011);
#305=VERTEX_POINT('',#1013);
#306=VERTEX_POINT('',#1015);
#307=VERTEX_POINT('',#1017);
#308=VERTEX_POINT('',#1019);
#309=VERTEX_POINT('',#1023);
#310=VERTEX_POINT('',#1025);
#311=VERTEX_POINT('',#1027);
#312=VERTEX_POINT('',#1029);
#313=VERTEX_POINT('',#1033);
#314=VERTEX_POINT('',#1037);
#315=VERTEX_POINT('',#1038);
#316=VERTEX_POINT('',#1040);
#317=VERTEX_POINT('',#1043);
#318=VERTEX_POINT('',#1045);
#319=VERTEX_POINT('',#1047);
#320=VERTEX_POINT('',#1051);
#321=VERTEX_POINT('',#1052);
#322=VERTEX_POINT('',#1054);
#323=VERTEX_POINT('',#1058);
#324=VERTEX_POINT('',#1059);
#325=VERTEX_POINT('',#1064);
#326=VERTEX_POINT('',#1070);
#327=VERTEX_POINT('',#1073);
#328=VERTEX_POINT('',#1077);
#329=VERTEX_POINT('',#1081);
#330=VERTEX_POINT('',#1085);
#331=VERTEX_POINT('',#1094);
#332=VERTEX_POINT('',#1095);
#333=VERTEX_POINT('',#1100);
#334=VERTEX_POINT('',#1104);
#335=VERTEX_POINT('',#1105);
#336=VERTEX_POINT('',#1110);
#337=VERTEX_POINT('',#1111);
#338=VERTEX_POINT('',#1116);
#339=VERTEX_POINT('',#1120);
#340=VERTEX_POINT('',#1127);
#341=VERTEX_POINT('',#1128);
#342=VERTEX_POINT('',#1133);
#343=LINE('',#1005,#394);
#344=LINE('',#1008,#395);
#345=LINE('',#1012,#396);
#346=LINE('',#1016,#397);
#347=LINE('',#1018,#398);
#348=LINE('',#1022,#399);
#349=LINE('',#1024,#400);
#350=LINE('',#1026,#401);
#351=LINE('',#1028,#402);
#352=LINE('',#1030,#403);
#353=LINE('',#1032,#404);
#354=LINE('',#1034,#405);
#355=LINE('',#1039,#406);
#356=LINE('',#1042,#407);
#357=LINE('',#1046,#408);
#358=LINE('',#1048,#409);
#359=LINE('',#1050,#410);
#360=LINE('',#1053,#411);
#361=LINE('',#1055,#412);
#362=LINE('',#1057,#413);
#363=LINE('',#1060,#414);
#364=LINE('',#1061,#415);
#365=LINE('',#1063,#416);
#366=LINE('',#1065,#417);
#367=LINE('',#1067,#418);
#368=LINE('',#1069,#419);
#369=LINE('',#1071,#420);
#370=LINE('',#1072,#421);
#371=LINE('',#1074,#422);
#372=LINE('',#1076,#423);
#373=LINE('',#1078,#424);
#374=LINE('',#1080,#425);
#375=LINE('',#1082,#426);
#376=LINE('',#1084,#427);
#377=LINE('',#1086,#428);
#378=LINE('',#1096,#429);
#379=LINE('',#1097,#430);
#380=LINE('',#1106,#431);
#381=LINE('',#1107,#432);
#382=LINE('',#1112,#433);
#383=LINE('',#1113,#434);
#384=LINE('',#1123,#435);
#385=LINE('',#1124,#436);
#386=LINE('',#1129,#437);
#387=LINE('',#1130,#438);
#388=LINE('',#1134,#439);
#389=LINE('',#1135,#440);
#390=LINE('',#1137,#441);
#391=LINE('',#1138,#442);
#392=LINE('',#1142,#443);
#393=LINE('',#1143,#444);
#394=VECTOR('',#850,1000.);
#395=VECTOR('',#851,1000.);
#396=VECTOR('',#854,1000.);
#397=VECTOR('',#857,1000.);
#398=VECTOR('',#858,1000.);
#399=VECTOR('',#863,1000.);
#400=VECTOR('',#864,1000.);
#401=VECTOR('',#865,1000.);
#402=VECTOR('',#866,1000.);
#403=VECTOR('',#867,1000.);
#404=VECTOR('',#870,1000.);
#405=VECTOR('',#871,1000.);
#406=VECTOR('',#876,1000.);
#407=VECTOR('',#879,1000.);
#408=VECTOR('',#882,1000.);
#409=VECTOR('',#883,1000.);
#410=VECTOR('',#886,1000.);
#411=VECTOR('',#887,1000.);
#412=VECTOR('',#888,1000.);
#413=VECTOR('',#891,1000.);
#414=VECTOR('',#892,1000.);
#415=VECTOR('',#893,1000.);
#416=VECTOR('',#896,1000.);
#417=VECTOR('',#897,1000.);
#418=VECTOR('',#900,1000.);
#419=VECTOR('',#903,1000.);
#420=VECTOR('',#904,1000.);
#421=VECTOR('',#905,1000.);
#422=VECTOR('',#906,1000.);
#423=VECTOR('',#909,1000.);
#424=VECTOR('',#910,1000.);
#425=VECTOR('',#913,1000.);
#426=VECTOR('',#914,1000.);
#427=VECTOR('',#917,1000.);
#428=VECTOR('',#918,1000.);
#429=VECTOR('',#933,1000.);
#430=VECTOR('',#934,1000.);
#431=VECTOR('',#945,1000.);
#432=VECTOR('',#946,1000.);
#433=VECTOR('',#951,1000.);
#434=VECTOR('',#952,1000.);
#435=VECTOR('',#967,1000.);
#436=VECTOR('',#968,1000.);
#437=VECTOR('',#973,1000.);
#438=VECTOR('',#974,1000.);
#439=VECTOR('',#979,1000.);
#440=VECTOR('',#980,1000.);
#441=VECTOR('',#983,1000.);
#442=VECTOR('',#984,1000.);
#443=VECTOR('',#991,1000.);
#444=VECTOR('',#992,1000.);
#445=EDGE_LOOP('',(#88,#89,#90,#91,#92,#93,#94,#95));
#446=EDGE_LOOP('',(#96,#97,#98,#99,#100,#101));
#447=EDGE_LOOP('',(#102,#103,#104,#105));
#448=EDGE_LOOP('',(#106,#107,#108,#109,#110,#111,#112,#113));
#449=EDGE_LOOP('',(#114,#115,#116));
#450=EDGE_LOOP('',(#117,#118,#119,#120));
#451=EDGE_LOOP('',(#121,#122,#123,#124));
#452=EDGE_LOOP('',(#125,#126,#127,#128));
#453=EDGE_LOOP('',(#129,#130,#131,#132,#133,#134));
#454=EDGE_LOOP('',(#135,#136,#137,#138));
#455=EDGE_LOOP('',(#139,#140,#141,#142));
#456=EDGE_LOOP('',(#143,#144,#145,#146));
#457=EDGE_LOOP('',(#147,#148,#149,#150,#151,#152,#153,#154));
#458=EDGE_LOOP('',(#155,#156,#157));
#459=EDGE_LOOP('',(#158,#159,#160,#161));
#460=EDGE_LOOP('',(#162,#163,#164,#165));
#461=EDGE_LOOP('',(#166,#167,#168,#169));
#462=EDGE_LOOP('',(#170,#171,#172));
#463=EDGE_LOOP('',(#173,#174,#175,#176));
#464=EDGE_LOOP('',(#177,#178,#179,#180));
#465=EDGE_LOOP('',(#181,#182,#183));
#466=EDGE_LOOP('',(#184,#185,#186));
#467=EDGE_LOOP('',(#187,#188,#189,#190));
#468=EDGE_LOOP('',(#191,#192,#193,#194));
#469=EDGE_LOOP('',(#195,#196,#197,#198));
#470=EDGE_LOOP('',(#199,#200,#201,#202));
#471=EDGE_LOOP('',(#203,#204,#205));
#472=EDGE_LOOP('',(#206,#207,#208,#209));
#473=EDGE_LOOP('',(#210,#211,#212,#213));
#474=EDGE_LOOP('',(#214,#215,#216,#217));
#475=EDGE_LOOP('',(#218,#219,#220,#221));
#476=EDGE_LOOP('',(#222,#223,#224,#225));
#477=EDGE_LOOP('',(#226,#227,#228,#229));
#478=FACE_BOUND('',#445,.T.);
#479=FACE_BOUND('',#446,.T.);
#480=FACE_BOUND('',#447,.T.);
#481=FACE_BOUND('',#448,.T.);
#482=FACE_BOUND('',#449,.T.);
#483=FACE_BOUND('',#450,.T.);
#484=FACE_BOUND('',#451,.T.);
#485=FACE_BOUND('',#452,.T.);
#486=FACE_BOUND('',#453,.T.);
#487=FACE_BOUND('',#454,.T.);
#488=FACE_BOUND('',#455,.T.);
#489=FACE_BOUND('',#456,.T.);
#490=FACE_BOUND('',#457,.T.);
#491=FACE_BOUND('',#458,.T.);
#492=FACE_BOUND('',#459,.T.);
#493=FACE_BOUND('',#460,.T.);
#494=FACE_BOUND('',#461,.T.);
#495=FACE_BOUND('',#462,.T.);
#496=FACE_BOUND('',#463,.T.);
#497=FACE_BOUND('',#464,.T.);
#498=FACE_BOUND('',#465,.T.);
#499=FACE_BOUND('',#466,.T.);
#500=FACE_BOUND('',#467,.T.);
#501=FACE_BOUND('',#468,.T.);
#502=FACE_BOUND('',#469,.T.);
#503=FACE_BOUND('',#470,.T.);
#504=FACE_BOUND('',#471,.T.);
#505=FACE_BOUND('',#472,.T.);
#506=FACE_BOUND('',#473,.T.);
#507=FACE_BOUND('',#474,.T.);
#508=FACE_BOUND('',#475,.T.);
#509=FACE_BOUND('',#476,.T.);
#510=FACE_BOUND('',#477,.T.);
#511=PLANE('',#794);
#512=PLANE('',#798);
#513=PLANE('',#799);
#514=PLANE('',#800);
#515=PLANE('',#804);
#516=PLANE('',#805);
#517=PLANE('',#806);
#518=PLANE('',#807);
#519=PLANE('',#808);
#520=PLANE('',#809);
#521=PLANE('',#810);
#522=PLANE('',#811);
#523=PLANE('',#812);
#524=PLANE('',#841);
#525=PLANE('',#842);
#526=PLANE('',#843);
#527=PLANE('',#844);
#528=PLANE('',#845);
#529=STYLED_ITEM('',(#561),#757);
#530=STYLED_ITEM('',(#562),#758);
#531=STYLED_ITEM('',(#563),#759);
#532=STYLED_ITEM('',(#564),#760);
#533=STYLED_ITEM('',(#565),#761);
#534=STYLED_ITEM('',(#566),#762);
#535=STYLED_ITEM('',(#567),#763);
#536=STYLED_ITEM('',(#568),#764);
#537=STYLED_ITEM('',(#569),#765);
#538=STYLED_ITEM('',(#570),#766);
#539=STYLED_ITEM('',(#571),#767);
#540=STYLED_ITEM('',(#572),#768);
#541=STYLED_ITEM('',(#573),#769);
#542=STYLED_ITEM('',(#574),#770);
#543=STYLED_ITEM('',(#575),#771);
#544=STYLED_ITEM('',(#576),#772);
#545=STYLED_ITEM('',(#577),#773);
#546=STYLED_ITEM('',(#578),#774);
#547=STYLED_ITEM('',(#579),#775);
#548=STYLED_ITEM('',(#580),#776);
#549=STYLED_ITEM('',(#581),#777);
#550=STYLED_ITEM('',(#582),#778);
#551=STYLED_ITEM('',(#583),#779);
#552=STYLED_ITEM('',(#584),#780);
#553=STYLED_ITEM('',(#585),#781);
#554=STYLED_ITEM('',(#586),#782);
#555=STYLED_ITEM('',(#587),#783);
#556=STYLED_ITEM('',(#588),#784);
#557=STYLED_ITEM('',(#589),#785);
#558=STYLED_ITEM('',(#590),#786);
#559=STYLED_ITEM('',(#591),#787);
#560=STYLED_ITEM('',(#592),#788);
#561=PRESENTATION_STYLE_ASSIGNMENT((#593));
#562=PRESENTATION_STYLE_ASSIGNMENT((#594));
#563=PRESENTATION_STYLE_ASSIGNMENT((#595));
#564=PRESENTATION_STYLE_ASSIGNMENT((#596));
#565=PRESENTATION_STYLE_ASSIGNMENT((#597));
#566=PRESENTATION_STYLE_ASSIGNMENT((#598));
#567=PRESENTATION_STYLE_ASSIGNMENT((#599));
#568=PRESENTATION_STYLE_ASSIGNMENT((#600));
#569=PRESENTATION_STYLE_ASSIGNMENT((#601));
#570=PRESENTATION_STYLE_ASSIGNMENT((#602));
#571=PRESENTATION_STYLE_ASSIGNMENT((#603));
#572=PRESENTATION_STYLE_ASSIGNMENT((#604));
#573=PRESENTATION_STYLE_ASSIGNMENT((#605));
#574=PRESENTATION_STYLE_ASSIGNMENT((#606));
#575=PRESENTATION_STYLE_ASSIGNMENT((#607));
#576=PRESENTATION_STYLE_ASSIGNMENT((#608));
#577=PRESENTATION_STYLE_ASSIGNMENT((#609));
#578=PRESENTATION_STYLE_ASSIGNMENT((#610));
#579=PRESENTATION_STYLE_ASSIGNMENT((#611));
#580=PRESENTATION_STYLE_ASSIGNMENT((#612));
#581=PRESENTATION_STYLE_ASSIGNMENT((#613));
#582=PRESENTATION_STYLE_ASSIGNMENT((#614));
#583=PRESENTATION_STYLE_ASSIGNMENT((#615));
#584=PRESENTATION_STYLE_ASSIGNMENT((#616));
#585=PRESENTATION_STYLE_ASSIGNMENT((#617));
#586=PRESENTATION_STYLE_ASSIGNMENT((#618));
#587=PRESENTATION_STYLE_ASSIGNMENT((#619));
#588=PRESENTATION_STYLE_ASSIGNMENT((#620));
#589=PRESENTATION_STYLE_ASSIGNMENT((#621));
#590=PRESENTATION_STYLE_ASSIGNMENT((#622));
#591=PRESENTATION_STYLE_ASSIGNMENT((#623));
#592=PRESENTATION_STYLE_ASSIGNMENT((#624));
#593=SURFACE_STYLE_USAGE(.BOTH.,#625);
#594=SURFACE_STYLE_USAGE(.BOTH.,#626);
#595=SURFACE_STYLE_USAGE(.BOTH.,#627);
#596=SURFACE_STYLE_USAGE(.BOTH.,#628);
#597=SURFACE_STYLE_USAGE(.BOTH.,#629);
#598=SURFACE_STYLE_USAGE(.BOTH.,#630);
#599=SURFACE_STYLE_USAGE(.BOTH.,#631);
#600=SURFACE_STYLE_USAGE(.BOTH.,#632);
#601=SURFACE_STYLE_USAGE(.BOTH.,#633);
#602=SURFACE_STYLE_USAGE(.BOTH.,#634);
#603=SURFACE_STYLE_USAGE(.BOTH.,#635);
#604=SURFACE_STYLE_USAGE(.BOTH.,#636);
#605=SURFACE_STYLE_USAGE(.BOTH.,#637);
#606=SURFACE_STYLE_USAGE(.BOTH.,#638);
#607=SURFACE_STYLE_USAGE(.BOTH.,#639);
#608=SURFACE_STYLE_USAGE(.BOTH.,#640);
#609=SURFACE_STYLE_USAGE(.BOTH.,#641);
#610=SURFACE_STYLE_USAGE(.BOTH.,#642);
#611=SURFACE_STYLE_USAGE(.BOTH.,#643);
#612=SURFACE_STYLE_USAGE(.BOTH.,#644);
#613=SURFACE_STYLE_USAGE(.BOTH.,#645);
#614=SURFACE_STYLE_USAGE(.BOTH.,#646);
#615=SURFACE_STYLE_USAGE(.BOTH.,#647);
#616=SURFACE_STYLE_USAGE(.BOTH.,#648);
#617=SURFACE_STYLE_USAGE(.BOTH.,#649);
#618=SURFACE_STYLE_USAGE(.BOTH.,#650);
#619=SURFACE_STYLE_USAGE(.BOTH.,#651);
#620=SURFACE_STYLE_USAGE(.BOTH.,#652);
#621=SURFACE_STYLE_USAGE(.BOTH.,#653);
#622=SURFACE_STYLE_USAGE(.BOTH.,#654);
#623=SURFACE_STYLE_USAGE(.BOTH.,#655);
#624=SURFACE_STYLE_USAGE(.BOTH.,#656);
#625=SURFACE_SIDE_STYLE('',(#657));
#626=SURFACE_SIDE_STYLE('',(#658));
#627=SURFACE_SIDE_STYLE('',(#659));
#628=SURFACE_SIDE_STYLE('',(#660));
#629=SURFACE_SIDE_STYLE('',(#661));
#630=SURFACE_SIDE_STYLE('',(#662));
#631=SURFACE_SIDE_STYLE('',(#663));
#632=SURFACE_SIDE_STYLE('',(#664));
#633=SURFACE_SIDE_STYLE('',(#665));
#634=SURFACE_SIDE_STYLE('',(#666));
#635=SURFACE_SIDE_STYLE('',(#667));
#636=SURFACE_SIDE_STYLE('',(#668));
#637=SURFACE_SIDE_STYLE('',(#669));
#638=SURFACE_SIDE_STYLE('',(#670));
#639=SURFACE_SIDE_STYLE('',(#671));
#640=SURFACE_SIDE_STYLE('',(#672,#24));
#641=SURFACE_SIDE_STYLE('',(#673,#25));
#642=SURFACE_SIDE_STYLE('',(#674,#26));
#643=SURFACE_SIDE_STYLE('',(#675,#27));
#644=SURFACE_SIDE_STYLE('',(#676,#28));
#645=SURFACE_SIDE_STYLE('',(#677,#29));
#646=SURFACE_SIDE_STYLE('',(#678,#30));
#647=SURFACE_SIDE_STYLE('',(#679,#31));
#648=SURFACE_SIDE_STYLE('',(#680,#32));
#649=SURFACE_SIDE_STYLE('',(#681,#33));
#650=SURFACE_SIDE_STYLE('',(#682,#34));
#651=SURFACE_SIDE_STYLE('',(#683,#35));
#652=SURFACE_SIDE_STYLE('',(#684,#36));
#653=SURFACE_SIDE_STYLE('',(#685,#37));
#654=SURFACE_SIDE_STYLE('',(#686,#38));
#655=SURFACE_SIDE_STYLE('',(#687,#39));
#656=SURFACE_SIDE_STYLE('',(#688,#40));
#657=SURFACE_STYLE_FILL_AREA(#689);
#658=SURFACE_STYLE_FILL_AREA(#690);
#659=SURFACE_STYLE_FILL_AREA(#691);
#660=SURFACE_STYLE_FILL_AREA(#692);
#661=SURFACE_STYLE_FILL_AREA(#693);
#662=SURFACE_STYLE_FILL_AREA(#694);
#663=SURFACE_STYLE_FILL_AREA(#695);
#664=SURFACE_STYLE_FILL_AREA(#696);
#665=SURFACE_STYLE_FILL_AREA(#697);
#666=SURFACE_STYLE_FILL_AREA(#698);
#667=SURFACE_STYLE_FILL_AREA(#699);
#668=SURFACE_STYLE_FILL_AREA(#700);
#669=SURFACE_STYLE_FILL_AREA(#701);
#670=SURFACE_STYLE_FILL_AREA(#702);
#671=SURFACE_STYLE_FILL_AREA(#703);
#672=SURFACE_STYLE_FILL_AREA(#704);
#673=SURFACE_STYLE_FILL_AREA(#705);
#674=SURFACE_STYLE_FILL_AREA(#706);
#675=SURFACE_STYLE_FILL_AREA(#707);
#676=SURFACE_STYLE_FILL_AREA(#708);
#677=SURFACE_STYLE_FILL_AREA(#709);
#678=SURFACE_STYLE_FILL_AREA(#710);
#679=SURFACE_STYLE_FILL_AREA(#711);
#680=SURFACE_STYLE_FILL_AREA(#712);
#681=SURFACE_STYLE_FILL_AREA(#713);
#682=SURFACE_STYLE_FILL_AREA(#714);
#683=SURFACE_STYLE_FILL_AREA(#715);
#684=SURFACE_STYLE_FILL_AREA(#716);
#685=SURFACE_STYLE_FILL_AREA(#717);
#686=SURFACE_STYLE_FILL_AREA(#718);
#687=SURFACE_STYLE_FILL_AREA(#719);
#688=SURFACE_STYLE_FILL_AREA(#720);
#689=FILL_AREA_STYLE('',(#721));
#690=FILL_AREA_STYLE('',(#722));
#691=FILL_AREA_STYLE('',(#723));
#692=FILL_AREA_STYLE('',(#724));
#693=FILL_AREA_STYLE('',(#725));
#694=FILL_AREA_STYLE('',(#726));
#695=FILL_AREA_STYLE('',(#727));
#696=FILL_AREA_STYLE('',(#728));
#697=FILL_AREA_STYLE('',(#729));
#698=FILL_AREA_STYLE('',(#730));
#699=FILL_AREA_STYLE('',(#731));
#700=FILL_AREA_STYLE('',(#732));
#701=FILL_AREA_STYLE('',(#733));
#702=FILL_AREA_STYLE('',(#734));
#703=FILL_AREA_STYLE('',(#735));
#704=FILL_AREA_STYLE('',(#736));
#705=FILL_AREA_STYLE('',(#737));
#706=FILL_AREA_STYLE('',(#738));
#707=FILL_AREA_STYLE('',(#739));
#708=FILL_AREA_STYLE('',(#740));
#709=FILL_AREA_STYLE('',(#741));
#710=FILL_AREA_STYLE('',(#742));
#711=FILL_AREA_STYLE('',(#743));
#712=FILL_AREA_STYLE('',(#744));
#713=FILL_AREA_STYLE('',(#745));
#714=FILL_AREA_STYLE('',(#746));
#715=FILL_AREA_STYLE('',(#747));
#716=FILL_AREA_STYLE('',(#748));
#717=FILL_AREA_STYLE('',(#749));
#718=FILL_AREA_STYLE('',(#750));
#719=FILL_AREA_STYLE('',(#751));
#720=FILL_AREA_STYLE('',(#752));
#721=FILL_AREA_STYLE_COLOUR('',#753);
#722=FILL_AREA_STYLE_COLOUR('',#753);
#723=FILL_AREA_STYLE_COLOUR('',#753);
#724=FILL_AREA_STYLE_COLOUR('',#753);
#725=FILL_AREA_STYLE_COLOUR('',#754);
#726=FILL_AREA_STYLE_COLOUR('',#754);
#727=FILL_AREA_STYLE_COLOUR('',#754);
#728=FILL_AREA_STYLE_COLOUR('',#754);
#729=FILL_AREA_STYLE_COLOUR('',#753);
#730=FILL_AREA_STYLE_COLOUR('',#753);
#731=FILL_AREA_STYLE_COLOUR('',#753);
#732=FILL_AREA_STYLE_COLOUR('',#753);
#733=FILL_AREA_STYLE_COLOUR('',#753);
#734=FILL_AREA_STYLE_COLOUR('',#755);
#735=FILL_AREA_STYLE_COLOUR('',#755);
#736=FILL_AREA_STYLE_COLOUR('',#756);
#737=FILL_AREA_STYLE_COLOUR('',#756);
#738=FILL_AREA_STYLE_COLOUR('',#756);
#739=FILL_AREA_STYLE_COLOUR('',#756);
#740=FILL_AREA_STYLE_COLOUR('',#756);
#741=FILL_AREA_STYLE_COLOUR('',#756);
#742=FILL_AREA_STYLE_COLOUR('',#756);
#743=FILL_AREA_STYLE_COLOUR('',#756);
#744=FILL_AREA_STYLE_COLOUR('',#756);
#745=FILL_AREA_STYLE_COLOUR('',#756);
#746=FILL_AREA_STYLE_COLOUR('',#756);
#747=FILL_AREA_STYLE_COLOUR('',#756);
#748=FILL_AREA_STYLE_COLOUR('',#756);
#749=FILL_AREA_STYLE_COLOUR('',#756);
#750=FILL_AREA_STYLE_COLOUR('',#756);
#751=FILL_AREA_STYLE_COLOUR('',#756);
#752=FILL_AREA_STYLE_COLOUR('',#756);
#753=COLOUR_RGB('',0.506983280181885,0.531564235687256,0.550000011920929);
#754=COLOUR_RGB('',0.062745101749897,0.690196096897125,0.062745101749897);
#755=COLOUR_RGB('',0.815686285495758,0.627451002597809,0.313725501298904);
#756=COLOUR_RGB('',0.941176474094391,0.941176474094391,0.941176474094391);
#757=ADVANCED_FACE('',(#478),#511,.T.);
#758=ADVANCED_FACE('',(#479),#512,.F.);
#759=ADVANCED_FACE('',(#480),#513,.F.);
#760=ADVANCED_FACE('',(#481),#514,.T.);
#761=ADVANCED_FACE('',(#482),#515,.F.);
#762=ADVANCED_FACE('',(#483),#516,.T.);
#763=ADVANCED_FACE('',(#484),#517,.T.);
#764=ADVANCED_FACE('',(#485),#518,.T.);
#765=ADVANCED_FACE('',(#486),#519,.F.);
#766=ADVANCED_FACE('',(#487),#520,.F.);
#767=ADVANCED_FACE('',(#488),#521,.F.);
#768=ADVANCED_FACE('',(#489),#522,.F.);
#769=ADVANCED_FACE('',(#490,#491),#523,.F.);
#770=ADVANCED_FACE('',(#492),#58,.F.);
#771=ADVANCED_FACE('',(#493),#59,.F.);
#772=ADVANCED_FACE('',(#494),#60,.T.);
#773=ADVANCED_FACE('',(#495),#20,.T.);
#774=ADVANCED_FACE('',(#496),#61,.T.);
#775=ADVANCED_FACE('',(#497),#62,.T.);
#776=ADVANCED_FACE('',(#498),#21,.T.);
#777=ADVANCED_FACE('',(#499),#22,.T.);
#778=ADVANCED_FACE('',(#500),#63,.T.);
#779=ADVANCED_FACE('',(#501),#64,.T.);
#780=ADVANCED_FACE('',(#502),#65,.T.);
#781=ADVANCED_FACE('',(#503),#66,.T.);
#782=ADVANCED_FACE('',(#504),#23,.T.);
#783=ADVANCED_FACE('',(#505),#67,.T.);
#784=ADVANCED_FACE('',(#506),#524,.T.);
#785=ADVANCED_FACE('',(#507),#525,.T.);
#786=ADVANCED_FACE('',(#508),#526,.T.);
#787=ADVANCED_FACE('',(#509),#527,.T.);
#788=ADVANCED_FACE('',(#510),#528,.T.);
#789=CLOSED_SHELL('',(#757,#758,#759,#760,#761,#762,#763,#764,#765,#766,
#767,#768,#769,#770,#771,#772,#773,#774,#775,#776,#777,#778,#779,#780,#781,
#782,#783,#784,#785,#786,#787,#788));
#790=MANIFOLD_SOLID_BREP('',#789);
#791=SHAPE_DEFINITION_REPRESENTATION(#1155,#792);
#792=SHAPE_REPRESENTATION('150120RS75000',(#793),#1150);
#793=AXIS2_PLACEMENT_3D('',#1003,#846,#847);
#794=AXIS2_PLACEMENT_3D('',#1004,#848,#849);
#795=AXIS2_PLACEMENT_3D('',#1010,#852,#853);
#796=AXIS2_PLACEMENT_3D('',#1014,#855,#856);
#797=AXIS2_PLACEMENT_3D('',#1020,#859,#860);
#798=AXIS2_PLACEMENT_3D('',#1021,#861,#862);
#799=AXIS2_PLACEMENT_3D('',#1031,#868,#869);
#800=AXIS2_PLACEMENT_3D('',#1035,#872,#873);
#801=AXIS2_PLACEMENT_3D('',#1036,#874,#875);
#802=AXIS2_PLACEMENT_3D('',#1041,#877,#878);
#803=AXIS2_PLACEMENT_3D('',#1044,#880,#881);
#804=AXIS2_PLACEMENT_3D('',#1049,#884,#885);
#805=AXIS2_PLACEMENT_3D('',#1056,#889,#890);
#806=AXIS2_PLACEMENT_3D('',#1062,#894,#895);
#807=AXIS2_PLACEMENT_3D('',#1066,#898,#899);
#808=AXIS2_PLACEMENT_3D('',#1068,#901,#902);
#809=AXIS2_PLACEMENT_3D('',#1075,#907,#908);
#810=AXIS2_PLACEMENT_3D('',#1079,#911,#912);
#811=AXIS2_PLACEMENT_3D('',#1083,#915,#916);
#812=AXIS2_PLACEMENT_3D('',#1087,#919,#920);
#813=AXIS2_PLACEMENT_3D('',#1088,#921,#922);
#814=AXIS2_PLACEMENT_3D('',#1089,#923,#924);
#815=AXIS2_PLACEMENT_3D('',#1090,#925,#926);
#816=AXIS2_PLACEMENT_3D('',#1091,#927,#928);
#817=AXIS2_PLACEMENT_3D('',#1092,#929,#930);
#818=AXIS2_PLACEMENT_3D('',#1093,#931,#932);
#819=AXIS2_PLACEMENT_3D('',#1098,#935,#936);
#820=AXIS2_PLACEMENT_3D('',#1099,#937,#938);
#821=AXIS2_PLACEMENT_3D('',#1101,#939,#940);
#822=AXIS2_PLACEMENT_3D('',#1102,#941,#942);
#823=AXIS2_PLACEMENT_3D('',#1103,#943,#944);
#824=AXIS2_PLACEMENT_3D('',#1108,#947,#948);
#825=AXIS2_PLACEMENT_3D('',#1109,#949,#950);
#826=AXIS2_PLACEMENT_3D('',#1114,#953,#954);
#827=AXIS2_PLACEMENT_3D('',#1115,#955,#956);
#828=AXIS2_PLACEMENT_3D('',#1117,#957,#958);
#829=AXIS2_PLACEMENT_3D('',#1118,#959,#960);
#830=AXIS2_PLACEMENT_3D('',#1119,#961,#962);
#831=AXIS2_PLACEMENT_3D('',#1121,#963,#964);
#832=AXIS2_PLACEMENT_3D('',#1122,#965,#966);
#833=AXIS2_PLACEMENT_3D('',#1125,#969,#970);
#834=AXIS2_PLACEMENT_3D('',#1126,#971,#972);
#835=AXIS2_PLACEMENT_3D('',#1131,#975,#976);
#836=AXIS2_PLACEMENT_3D('',#1132,#977,#978);
#837=AXIS2_PLACEMENT_3D('',#1136,#981,#982);
#838=AXIS2_PLACEMENT_3D('',#1139,#985,#986);
#839=AXIS2_PLACEMENT_3D('',#1140,#987,#988);
#840=AXIS2_PLACEMENT_3D('',#1141,#989,#990);
#841=AXIS2_PLACEMENT_3D('',#1144,#993,#994);
#842=AXIS2_PLACEMENT_3D('',#1145,#995,#996);
#843=AXIS2_PLACEMENT_3D('',#1146,#997,#998);
#844=AXIS2_PLACEMENT_3D('',#1147,#999,#1000);
#845=AXIS2_PLACEMENT_3D('',#1148,#1001,#1002);
#846=DIRECTION('',(0.,0.,1.));
#847=DIRECTION('',(1.,0.,0.));
#848=DIRECTION('',(0.,0.,1.));
#849=DIRECTION('',(1.,0.,0.));
#850=DIRECTION('',(0.,-1.,0.));
#851=DIRECTION('',(1.,0.,0.));
#852=DIRECTION('',(0.,0.,1.));
#853=DIRECTION('',(-0.707106781186548,-0.707106781186548,0.));
#854=DIRECTION('',(0.,1.,0.));
#855=DIRECTION('',(0.,0.,1.));
#856=DIRECTION('',(-0.707106781186548,0.707106781186548,0.));
#857=DIRECTION('',(-1.,0.,0.));
#858=DIRECTION('',(0.,-1.,0.));
#859=DIRECTION('',(0.,0.,1.));
#860=DIRECTION('',(1.,0.,0.));
#861=DIRECTION('',(0.,1.,0.));
#862=DIRECTION('',(0.,0.,1.));
#863=DIRECTION('',(0.,0.,-1.));
#864=DIRECTION('',(1.,0.,0.));
#865=DIRECTION('',(0.,0.,-1.));
#866=DIRECTION('',(1.,0.,0.));
#867=DIRECTION('',(-1.,0.,0.));
#868=DIRECTION('',(1.,0.,0.));
#869=DIRECTION('',(0.,0.,-1.));
#870=DIRECTION('',(0.,-1.,0.));
#871=DIRECTION('',(0.,0.,-1.));
#872=DIRECTION('',(0.,0.,1.));
#873=DIRECTION('',(1.,0.,0.));
#874=DIRECTION('',(0.,0.,1.));
#875=DIRECTION('',(0.707106781186548,0.707106781186548,0.));
#876=DIRECTION('',(0.,-1.,0.));
#877=DIRECTION('',(0.,0.,1.));
#878=DIRECTION('',(0.707106781186548,-0.707106781186548,0.));
#879=DIRECTION('',(0.,1.,0.));
#880=DIRECTION('',(-7.96049302754883E-17,2.08166817117217E-16,1.));
#881=DIRECTION('',(-1.,-8.39365734621179E-19,-7.96049302754883E-17));
#882=DIRECTION('',(0.,1.,0.));
#883=DIRECTION('',(-1.,0.,0.));
#884=DIRECTION('',(0.,0.,1.));
#885=DIRECTION('',(1.,0.,0.));
#886=DIRECTION('',(-0.866025403784439,-0.5,0.));
#887=DIRECTION('',(0.,1.,0.));
#888=DIRECTION('',(0.866025403784439,-0.5,0.));
#889=DIRECTION('',(-1.,0.,0.));
#890=DIRECTION('',(0.,0.,1.));
#891=DIRECTION('',(0.,1.,0.));
#892=DIRECTION('',(0.,0.,-1.));
#893=DIRECTION('',(0.,0.,-1.));
#894=DIRECTION('',(0.5,0.866025403784439,0.));
#895=DIRECTION('',(-0.866025403784439,0.5,0.));
#896=DIRECTION('',(0.866025403784439,-0.5,0.));
#897=DIRECTION('',(0.,0.,-1.));
#898=DIRECTION('',(0.5,-0.866025403784439,0.));
#899=DIRECTION('',(0.866025403784439,0.5,0.));
#900=DIRECTION('',(-0.866025403784439,-0.5,0.));
#901=DIRECTION('',(0.,-1.,0.));
#902=DIRECTION('',(0.,0.,-1.));
#903=DIRECTION('',(0.,0.,-1.));
#904=DIRECTION('',(1.,0.,0.));
#905=DIRECTION('',(0.,0.,-1.));
#906=DIRECTION('',(-1.,0.,0.));
#907=DIRECTION('',(-1.,0.,0.));
#908=DIRECTION('',(0.,0.,1.));
#909=DIRECTION('',(7.96049302754883E-17,-2.08166817117217E-16,-1.));
#910=DIRECTION('',(0.,1.,0.));
#911=DIRECTION('',(-1.,0.,0.));
#912=DIRECTION('',(0.,0.,1.));
#913=DIRECTION('',(0.,1.,0.));
#914=DIRECTION('',(7.96049302754883E-17,-2.08166817117217E-16,-1.));
#915=DIRECTION('',(1.,0.,0.));
#916=DIRECTION('',(0.,0.,-1.));
#917=DIRECTION('',(0.,-1.,0.));
#918=DIRECTION('',(0.,0.,-1.));
#919=DIRECTION('',(0.,0.,1.));
#920=DIRECTION('',(1.,0.,0.));
#921=DIRECTION('',(-7.96049302754883E-17,2.08166817117217E-16,1.));
#922=DIRECTION('',(-1.,-8.39365734621179E-19,-7.96049302754883E-17));
#923=DIRECTION('',(0.,0.,1.));
#924=DIRECTION('',(1.,0.,0.));
#925=DIRECTION('',(0.,0.,-1.));
#926=DIRECTION('',(-1.,0.,0.));
#927=DIRECTION('',(7.96049302754883E-17,-2.08166817117217E-16,-1.));
#928=DIRECTION('',(1.,8.39365734621179E-19,7.96049302754883E-17));
#929=DIRECTION('',(0.0522644276887139,0.0522644276887139,-0.997264688634237));
#930=DIRECTION('',(-0.998629534754574,0.,-0.0523359562429438));
#931=DIRECTION('',(-0.0522644276887141,-0.0522644276887143,0.997264688634237));
#932=DIRECTION('',(0.,-0.998629534754574,-0.0523359562429442));
#933=DIRECTION('',(-0.0522644276887139,-0.0522644276887139,0.997264688634237));
#934=DIRECTION('',(-0.0522644276887139,-0.0522644276887139,0.997264688634237));
#935=DIRECTION('',(0.,0.,1.));
#936=DIRECTION('',(1.,0.,0.));
#937=DIRECTION('',(1.,-1.42051570384536E-16,2.71050543121376E-15));
#938=DIRECTION('',(2.71050543121376E-15,0.,-1.));
#939=DIRECTION('',(-5.42845036498925E-15,1.,0.));
#940=DIRECTION('',(-1.,-5.42845036498925E-15,0.));
#941=DIRECTION('',(-1.,0.,0.));
#942=DIRECTION('',(0.,0.,1.));
#943=DIRECTION('',(-1.,0.,0.));
#944=DIRECTION('',(0.,0.,1.));
#945=DIRECTION('',(1.,0.,0.));
#946=DIRECTION('',(-1.,0.,0.));
#947=DIRECTION('',(0.,1.,0.));
#948=DIRECTION('',(0.,0.,1.));
#949=DIRECTION('',(0.,-1.,0.));
#950=DIRECTION('',(0.,0.,-1.));
#951=DIRECTION('',(0.,1.,0.));
#952=DIRECTION('',(0.,-1.,0.));
#953=DIRECTION('',(0.,0.,1.));
#954=DIRECTION('',(1.,0.,0.));
#955=DIRECTION('',(0.0522644276887141,-0.0522644276887141,0.997264688634237));
#956=DIRECTION('',(0.998629534754574,0.,-0.052335956242944));
#957=DIRECTION('',(1.42051570384536E-16,1.,2.71050543121376E-15));
#958=DIRECTION('',(0.,-2.71050543121376E-15,1.));
#959=DIRECTION('',(0.,0.,1.));
#960=DIRECTION('',(1.,0.,0.));
#961=DIRECTION('',(1.,2.71422518249463E-15,0.));
#962=DIRECTION('',(-2.71422518249463E-15,1.,0.));
#963=DIRECTION('',(-0.0522644276887141,0.0522644276887141,0.997264688634237));
#964=DIRECTION('',(0.998629534754574,0.,0.052335956242944));
#965=DIRECTION('',(-0.0522644276887139,0.0522644276887139,-0.997264688634237));
#966=DIRECTION('',(-0.998629534754574,0.,0.0523359562429438));
#967=DIRECTION('',(0.0522644276887139,-0.0522644276887139,0.997264688634237));
#968=DIRECTION('',(0.0522644276887139,-0.0522644276887139,0.997264688634237));
#969=DIRECTION('',(0.,-1.,0.));
#970=DIRECTION('',(0.,0.,-1.));
#971=DIRECTION('',(0.,-1.,0.));
#972=DIRECTION('',(0.,0.,-1.));
#973=DIRECTION('',(0.,1.,0.));
#974=DIRECTION('',(0.,-1.,0.));
#975=DIRECTION('',(1.,0.,0.));
#976=DIRECTION('',(0.,0.,-1.));
#977=DIRECTION('',(-1.,0.,0.));
#978=DIRECTION('',(0.,0.,1.));
#979=DIRECTION('',(1.,0.,0.));
#980=DIRECTION('',(-1.,0.,0.));
#981=DIRECTION('',(0.0522644276887139,-0.0522644276887139,-0.997264688634237));
#982=DIRECTION('',(-0.998629534754574,0.,-0.0523359562429438));
#983=DIRECTION('',(-0.0522644276887139,0.0522644276887139,0.997264688634237));
#984=DIRECTION('',(-0.0522644276887139,0.0522644276887139,0.997264688634237));
#985=DIRECTION('',(0.,0.,1.));
#986=DIRECTION('',(1.,0.,0.));
#987=DIRECTION('',(0.0522644276887141,0.0522644276887141,0.997264688634237));
#988=DIRECTION('',(0.998629534754574,0.,-0.052335956242944));
#989=DIRECTION('',(-0.0522644276887139,-0.0522644276887139,-0.997264688634237));
#990=DIRECTION('',(-0.998629534754574,0.,0.0523359562429438));
#991=DIRECTION('',(0.0522644276887139,0.0522644276887139,0.997264688634237));
#992=DIRECTION('',(0.0522644276887139,0.0522644276887139,0.997264688634237));
#993=DIRECTION('',(0.,0.,1.));
#994=DIRECTION('',(1.,0.,0.));
#995=DIRECTION('',(0.,0.998629534754574,0.0523359562429438));
#996=DIRECTION('',(0.,-0.0523359562429438,0.998629534754574));
#997=DIRECTION('',(0.998629534754574,0.,0.0523359562429438));
#998=DIRECTION('',(0.0523359562429438,0.,-0.998629534754574));
#999=DIRECTION('',(0.,-0.998629534754574,0.0523359562429438));
#1000=DIRECTION('',(0.,-0.0523359562429438,-0.998629534754574));
#1001=DIRECTION('',(-0.998629534754574,0.,0.0523359562429438));
#1002=DIRECTION('',(0.0523359562429438,0.,0.998629534754574));
#1003=CARTESIAN_POINT('',(0.,0.,0.));
#1004=CARTESIAN_POINT('',(-1.59999999999999,-0.800000000000002,0.28));
#1005=CARTESIAN_POINT('',(-1.59999999999999,-0.600000000000002,0.28));
#1006=CARTESIAN_POINT('',(-1.6,-0.367423461417476,0.28));
#1007=CARTESIAN_POINT('',(-1.59999999999999,-0.800000000000002,0.28));
#1008=CARTESIAN_POINT('',(-1.59999999999999,-0.800000000000002,0.28));
#1009=CARTESIAN_POINT('',(-0.960054818609814,-0.8,0.28));
#1010=CARTESIAN_POINT('',(-0.95994510616008,-0.759945106160083,0.28));
#1011=CARTESIAN_POINT('',(-1.,-0.760054818609816,0.28));
#1012=CARTESIAN_POINT('',(-0.999999999999997,1.08133953490823E-15,0.28));
#1013=CARTESIAN_POINT('',(-0.999999999999997,0.76005481860982,0.28));
#1014=CARTESIAN_POINT('',(-0.95994510616008,0.759945106160086,0.28));
#1015=CARTESIAN_POINT('',(-0.960054818609814,0.800000000000002,0.28));
#1016=CARTESIAN_POINT('',(1.6,0.800000000000002,0.28));
#1017=CARTESIAN_POINT('',(-1.59999999999999,0.800000000000004,0.28));
#1018=CARTESIAN_POINT('',(-1.59999999999999,0.8,0.28));
#1019=CARTESIAN_POINT('',(-1.6,0.367423461417476,0.28));
#1020=CARTESIAN_POINT('',(-1.675,1.62630325872826E-16,0.28));
#1021=CARTESIAN_POINT('',(-1.59999999999999,-0.800000000000002,0.28));
#1022=CARTESIAN_POINT('',(-1.59999999999999,-0.800000000000002,0.28));
#1023=CARTESIAN_POINT('',(-1.59999999999999,-0.8,0.));
#1024=CARTESIAN_POINT('',(-1.59999999999999,-0.8,0.));
#1025=CARTESIAN_POINT('',(1.6,-0.8,0.));
#1026=CARTESIAN_POINT('',(1.6,-0.8,0.28));
#1027=CARTESIAN_POINT('',(1.6,-0.8,0.28));
#1028=CARTESIAN_POINT('',(-1.59999999999999,-0.8,0.28));
#1029=CARTESIAN_POINT('',(0.960054818609821,-0.8,0.28));
#1030=CARTESIAN_POINT('',(-3.25260651745651E-16,-0.799999999999999,0.28));
#1031=CARTESIAN_POINT('',(-1.59999999999999,-0.600000000000002,0.28));
#1032=CARTESIAN_POINT('',(-1.59999999999999,0.8,0.));
#1033=CARTESIAN_POINT('',(-1.6,-0.367423461417476,6.7762635780344E-17));
#1034=CARTESIAN_POINT('',(-1.6,-0.367423461417476,1.7722584461641));
#1035=CARTESIAN_POINT('',(-1.59999999999999,-0.800000000000002,0.28));
#1036=CARTESIAN_POINT('',(0.959945106160087,0.759945106160086,0.28));
#1037=CARTESIAN_POINT('',(1.,0.76005481860982,0.28));
#1038=CARTESIAN_POINT('',(0.960054818609821,0.800000000000002,0.28));
#1039=CARTESIAN_POINT('',(1.,1.08133953490823E-15,0.28));
#1040=CARTESIAN_POINT('',(1.,-0.760054818609816,0.28));
#1041=CARTESIAN_POINT('',(0.959945106160087,-0.759945106160082,0.28));
#1042=CARTESIAN_POINT('',(1.6,-0.8,0.28));
#1043=CARTESIAN_POINT('',(1.6,-0.367423461417476,0.28));
#1044=CARTESIAN_POINT('',(1.675,-3.61526870894829E-16,0.28));
#1045=CARTESIAN_POINT('',(1.6,0.367423461417476,0.28));
#1046=CARTESIAN_POINT('',(1.6,-0.8,0.28));
#1047=CARTESIAN_POINT('',(1.6,0.8,0.28));
#1048=CARTESIAN_POINT('',(1.6,0.800000000000002,0.28));
#1049=CARTESIAN_POINT('',(-0.5,-1.3357921621787E-16,0.04));
#1050=CARTESIAN_POINT('',(0.5,0.577350269189626,0.04));
#1051=CARTESIAN_POINT('',(0.5,0.577350269189626,0.04));
#1052=CARTESIAN_POINT('',(-0.5,0.,0.04));
#1053=CARTESIAN_POINT('',(0.5,-0.577350269189626,0.04));
#1054=CARTESIAN_POINT('',(0.5,-0.577350269189626,0.04));
#1055=CARTESIAN_POINT('',(-0.5,0.,0.04));
#1056=CARTESIAN_POINT('',(0.5,-0.577350269189626,0.04));
#1057=CARTESIAN_POINT('',(0.5,-0.577350269189626,0.));
#1058=CARTESIAN_POINT('',(0.5,-0.577350269189626,0.));
#1059=CARTESIAN_POINT('',(0.5,0.577350269189626,0.));
#1060=CARTESIAN_POINT('',(0.5,-0.577350269189626,0.04));
#1061=CARTESIAN_POINT('',(0.5,0.577350269189626,0.04));
#1062=CARTESIAN_POINT('',(-0.5,0.,0.04));
#1063=CARTESIAN_POINT('',(-0.5,0.,0.));
#1064=CARTESIAN_POINT('',(-0.5,0.,0.));
#1065=CARTESIAN_POINT('',(-0.5,0.,0.04));
#1066=CARTESIAN_POINT('',(0.5,0.577350269189626,0.04));
#1067=CARTESIAN_POINT('',(0.5,0.577350269189626,0.));
#1068=CARTESIAN_POINT('',(1.6,0.800000000000002,0.28));
#1069=CARTESIAN_POINT('',(-1.59999999999999,0.800000000000002,0.28));
#1070=CARTESIAN_POINT('',(-1.59999999999999,0.800000000000002,0.));
#1071=CARTESIAN_POINT('',(-3.25260651745651E-16,0.800000000000003,0.28));
#1072=CARTESIAN_POINT('',(1.6,0.8,0.28));
#1073=CARTESIAN_POINT('',(1.6,0.8,0.));
#1074=CARTESIAN_POINT('',(1.6,0.800000000000002,0.));
#1075=CARTESIAN_POINT('',(1.6,-0.8,0.28));
#1076=CARTESIAN_POINT('',(1.6,0.367423461417476,1.7722584461641));
#1077=CARTESIAN_POINT('',(1.6,0.367423461417476,2.04894122550487E-16));
#1078=CARTESIAN_POINT('',(1.6,-0.8,0.));
#1079=CARTESIAN_POINT('',(1.6,-0.8,0.28));
#1080=CARTESIAN_POINT('',(1.6,-0.8,0.));
#1081=CARTESIAN_POINT('',(1.6,-0.367423461417476,3.5786486754542E-16));
#1082=CARTESIAN_POINT('',(1.6,-0.367423461417476,1.7722584461641));
#1083=CARTESIAN_POINT('',(-1.59999999999999,0.8,0.28));
#1084=CARTESIAN_POINT('',(-1.59999999999999,0.8,0.));
#1085=CARTESIAN_POINT('',(-1.6,0.367423461417476,6.7762635780344E-17));
#1086=CARTESIAN_POINT('',(-1.6,0.367423461417476,1.7722584461641));
#1087=CARTESIAN_POINT('',(-1.59999999999999,-0.8,0.));
#1088=CARTESIAN_POINT('',(1.675,-4.1981357968765E-16,2.87349864818615E-16));
#1089=CARTESIAN_POINT('',(-1.675,1.62630325872826E-16,6.7762635780344E-17));
#1090=CARTESIAN_POINT('',(-1.675,1.62630325872826E-16,1.7722584461641));
#1091=CARTESIAN_POINT('',(1.675,-5.08881798405647E-17,1.7722584461641));
#1092=CARTESIAN_POINT('',(0.957432361283365,0.757432361283365,0.327946028454118));
#1093=CARTESIAN_POINT('',(0.941078305618192,0.741078305618192,0.64));
#1094=CARTESIAN_POINT('',(0.981023487008375,0.741078305618192,0.642093438249718));
#1095=CARTESIAN_POINT('',(0.941078305618192,0.781023487008374,0.642093438249718));
#1096=CARTESIAN_POINT('',(0.997923856753874,0.75797867536369,0.319615173062709));
#1097=CARTESIAN_POINT('',(0.957432361283365,0.797377542673547,0.330039466703836));
#1098=CARTESIAN_POINT('',(0.941078305618192,0.741078305618191,0.64));
#1099=CARTESIAN_POINT('',(0.941078305618192,0.741078305618191,0.64));
#1100=CARTESIAN_POINT('',(0.941078305618192,0.741078305618191,0.68));
#1101=CARTESIAN_POINT('',(0.941078305618192,0.741078305618191,0.64));
#1102=CARTESIAN_POINT('',(-0.999999999999997,0.741078305618191,0.64));
#1103=CARTESIAN_POINT('',(-0.941078305618185,0.741078305618191,0.64));
#1104=CARTESIAN_POINT('',(-0.941078305618185,0.741078305618191,0.68));
#1105=CARTESIAN_POINT('',(-0.941078305618185,0.781023487008374,0.642093438249718));
#1106=CARTESIAN_POINT('',(-0.97903688828678,0.741078305618191,0.68));
#1107=CARTESIAN_POINT('',(0.979036888286786,0.781023487008374,0.642093438249718));
#1108=CARTESIAN_POINT('',(0.941078305618192,-0.799999999999999,0.64));
#1109=CARTESIAN_POINT('',(0.941078305618192,-0.741078305618188,0.64));
#1110=CARTESIAN_POINT('',(0.981023487008375,-0.741078305618188,0.642093438249718));
#1111=CARTESIAN_POINT('',(0.941078305618192,-0.741078305618188,0.68));
#1112=CARTESIAN_POINT('',(0.981023487008375,-0.779036888286783,0.642093438249718));
#1113=CARTESIAN_POINT('',(0.941078305618192,0.779036888286786,0.68));
#1114=CARTESIAN_POINT('',(-0.941078305618185,0.741078305618191,0.64));
#1115=CARTESIAN_POINT('',(-0.941078305618185,0.741078305618191,0.64));
#1116=CARTESIAN_POINT('',(-0.981023487008368,0.741078305618191,0.642093438249718));
#1117=CARTESIAN_POINT('',(-0.941078305618185,0.741078305618191,0.64));
#1118=CARTESIAN_POINT('',(0.941078305618192,-0.741078305618188,0.64));
#1119=CARTESIAN_POINT('',(0.941078305618192,-0.741078305618188,0.64));
#1120=CARTESIAN_POINT('',(0.941078305618192,-0.781023487008371,0.642093438249718));
#1121=CARTESIAN_POINT('',(0.941078305618192,-0.741078305618188,0.64));
#1122=CARTESIAN_POINT('',(-0.957978675363684,0.75797867536369,0.317521734812991));
#1123=CARTESIAN_POINT('',(-0.997923856753867,0.75797867536369,0.319615173062709));
#1124=CARTESIAN_POINT('',(-0.957432361283358,0.797377542673547,0.330039466703835));
#1125=CARTESIAN_POINT('',(-0.941078305618185,-0.799999999999999,0.64));
#1126=CARTESIAN_POINT('',(-0.941078305618185,-0.741078305618188,0.64));
#1127=CARTESIAN_POINT('',(-0.941078305618185,-0.741078305618188,0.68));
#1128=CARTESIAN_POINT('',(-0.981023487008368,-0.741078305618188,0.642093438249718));
#1129=CARTESIAN_POINT('',(-0.941078305618185,-0.779036888286783,0.68));
#1130=CARTESIAN_POINT('',(-0.981023487008368,0.779036888286786,0.642093438249718));
#1131=CARTESIAN_POINT('',(-0.999999999999997,-0.741078305618188,0.64));
#1132=CARTESIAN_POINT('',(-0.941078305618185,-0.741078305618188,0.64));
#1133=CARTESIAN_POINT('',(-0.941078305618185,-0.781023487008371,0.642093438249718));
#1134=CARTESIAN_POINT('',(-0.97903688828678,-0.781023487008371,0.642093438249718));
#1135=CARTESIAN_POINT('',(0.979036888286786,-0.741078305618188,0.68));
#1136=CARTESIAN_POINT('',(0.957978675363691,-0.757978675363686,0.317521734812991));
#1137=CARTESIAN_POINT('',(0.997923856753874,-0.757978675363686,0.319615173062709));
#1138=CARTESIAN_POINT('',(0.957432361283365,-0.797377542673544,0.330039466703836));
#1139=CARTESIAN_POINT('',(-0.941078305618185,-0.741078305618188,0.64));
#1140=CARTESIAN_POINT('',(-0.941078305618185,-0.741078305618188,0.64));
#1141=CARTESIAN_POINT('',(-0.957432361283358,-0.757432361283361,0.327946028454117));
#1142=CARTESIAN_POINT('',(-0.997923856753867,-0.757978675363686,0.319615173062709));
#1143=CARTESIAN_POINT('',(-0.957432361283358,-0.797377542673544,0.330039466703835));
#1144=CARTESIAN_POINT('',(-0.999999999999997,-0.799999999999999,0.68));
#1145=CARTESIAN_POINT('',(-3.25260651745651E-16,0.800000000000003,0.28));
#1146=CARTESIAN_POINT('',(1.,1.08133953490823E-15,0.28));
#1147=CARTESIAN_POINT('',(-3.25260651745651E-16,-0.799999999999999,0.28));
#1148=CARTESIAN_POINT('',(-0.999999999999997,1.08133953490823E-15,0.28));
#1149=MECHANICAL_DESIGN_GEOMETRIC_PRESENTATION_REPRESENTATION('',(#529,
#530,#531,#532,#533,#534,#535,#536,#537,#538,#539,#540,#541,#542,#543,#544,
#545,#546,#547,#548,#549,#550,#551,#552,#553,#554,#555,#556,#557,#558,#559,
#560),#1150);
#1150=(
GEOMETRIC_REPRESENTATION_CONTEXT(3)
GLOBAL_UNCERTAINTY_ASSIGNED_CONTEXT((#1151))
GLOBAL_UNIT_ASSIGNED_CONTEXT((#1154,#1153,#1152))
REPRESENTATION_CONTEXT('150120RS75000','TOP_LEVEL_ASSEMBLY_PART')
);
#1151=UNCERTAINTY_MEASURE_WITH_UNIT(LENGTH_MEASURE(0.005),#1154,
'DISTANCE_ACCURACY_VALUE','Maximum Tolerance applied to model');
#1152=(
NAMED_UNIT(*)
SI_UNIT($,.STERADIAN.)
SOLID_ANGLE_UNIT()
);
#1153=(
NAMED_UNIT(*)
PLANE_ANGLE_UNIT()
SI_UNIT($,.RADIAN.)
);
#1154=(
LENGTH_UNIT()
NAMED_UNIT(*)
SI_UNIT(.MILLI.,.METRE.)
);
#1155=PRODUCT_DEFINITION_SHAPE('','',#1156);
#1156=PRODUCT_DEFINITION('','',#1158,#1157);
#1157=PRODUCT_DEFINITION_CONTEXT('',#1164,'design');
#1158=PRODUCT_DEFINITION_FORMATION_WITH_SPECIFIED_SOURCE('','',#1160,
 .NOT_KNOWN.);
#1159=PRODUCT_RELATED_PRODUCT_CATEGORY('','',(#1160));
#1160=PRODUCT('150120RS75000','150120RS75000','150120RS75000',(#1162));
#1161=PRODUCT_CATEGORY('','');
#1162=PRODUCT_CONTEXT('',#1164,'mechanical');
#1163=APPLICATION_PROTOCOL_DEFINITION('international standard',
'automotive_design',2010,#1164);
#1164=APPLICATION_CONTEXT(
'core data for automotive mechanical design processes');
ENDSEC;
END-ISO-10303-21;
