ISO-10303-21;
HEADER;
FILE_DESCRIPTION((''),'2;1');
FILE_NAME('P70-1020045','2021-07-02T13:46:20',('rportlock'),(''),
'CREO PARAMETRIC BY PTC INC, 2020154','CREO PARAMETRIC BY PTC INC, 2020154','');
FILE_SCHEMA(('CONFIG_CONTROL_DESIGN','SHAPE_APPEARANCE_LAYERS_GROUPS'));
ENDSEC;
DATA;
#18=DIRECTION('',(7.071067811865E-1,7.071067811865E-1,0.E0));
#19=VECTOR('',#18,1.414213562373E-1);
#20=CARTESIAN_POINT('',(9.E-1,0.E0,0.E0));
#21=LINE('',#20,#19);
#22=DRAUGHTING_PRE_DEFINED_CURVE_FONT('continuous');
#23=CURVE_STYLE('',#22,POSITIVE_LENGTH_MEASURE(2.E-2),#13);
#24=PRESENTATION_STYLE_ASSIGNMENT((#23));
#25=STYLED_ITEM('',(#24),#21);
#26=CARTESIAN_POINT('',(0.E0,0.E0,0.E0));
#27=DIRECTION('',(0.E0,-1.E0,0.E0));
#28=DIRECTION('',(1.E0,0.E0,0.E0));
#29=AXIS2_PLACEMENT_3D('',#26,#27,#28);
#31=CURVE_STYLE('',#22,POSITIVE_LENGTH_MEASURE(2.E-2),#13);
#32=PRESENTATION_STYLE_ASSIGNMENT((#31));
#33=STYLED_ITEM('',(#32),#30);
#34=DIRECTION('',(-7.071067811865E-1,7.071067811865E-1,0.E0));
#35=VECTOR('',#34,1.414213562373E-1);
#36=CARTESIAN_POINT('',(-9.E-1,0.E0,0.E0));
#37=LINE('',#36,#35);
#38=CURVE_STYLE('',#22,POSITIVE_LENGTH_MEASURE(2.E-2),#13);
#39=PRESENTATION_STYLE_ASSIGNMENT((#38));
#40=STYLED_ITEM('',(#39),#37);
#41=CARTESIAN_POINT('',(0.E0,0.E0,0.E0));
#42=DIRECTION('',(0.E0,1.E0,0.E0));
#43=DIRECTION('',(1.E0,0.E0,0.E0));
#44=AXIS2_PLACEMENT_3D('',#41,#42,#43);
#46=CURVE_STYLE('',#22,POSITIVE_LENGTH_MEASURE(2.E-2),#13);
#47=PRESENTATION_STYLE_ASSIGNMENT((#46));
#48=STYLED_ITEM('',(#47),#45);
#49=CARTESIAN_POINT('',(0.E0,1.E-1,0.E0));
#50=DIRECTION('',(0.E0,1.E0,0.E0));
#51=DIRECTION('',(1.E0,0.E0,0.E0));
#52=AXIS2_PLACEMENT_3D('',#49,#50,#51);
#54=CURVE_STYLE('',#22,POSITIVE_LENGTH_MEASURE(2.E-2),#13);
#55=PRESENTATION_STYLE_ASSIGNMENT((#54));
#56=STYLED_ITEM('',(#55),#53);
#57=DIRECTION('',(0.E0,1.E0,0.E0));
#58=VECTOR('',#57,4.E-1);
#59=CARTESIAN_POINT('',(1.E0,1.E-1,0.E0));
#60=LINE('',#59,#58);
#61=CURVE_STYLE('',#22,POSITIVE_LENGTH_MEASURE(2.E-2),#13);
#62=PRESENTATION_STYLE_ASSIGNMENT((#61));
#63=STYLED_ITEM('',(#62),#60);
#64=CARTESIAN_POINT('',(0.E0,1.E-1,0.E0));
#65=DIRECTION('',(0.E0,-1.E0,0.E0));
#66=DIRECTION('',(1.E0,0.E0,0.E0));
#67=AXIS2_PLACEMENT_3D('',#64,#65,#66);
#69=CURVE_STYLE('',#22,POSITIVE_LENGTH_MEASURE(2.E-2),#13);
#70=PRESENTATION_STYLE_ASSIGNMENT((#69));
#71=STYLED_ITEM('',(#70),#68);
#72=DIRECTION('',(0.E0,1.E0,0.E0));
#73=VECTOR('',#72,4.E-1);
#74=CARTESIAN_POINT('',(-1.E0,1.E-1,0.E0));
#75=LINE('',#74,#73);
#76=CURVE_STYLE('',#22,POSITIVE_LENGTH_MEASURE(2.E-2),#13);
#77=PRESENTATION_STYLE_ASSIGNMENT((#76));
#78=STYLED_ITEM('',(#77),#75);
#79=CARTESIAN_POINT('',(0.E0,5.E-1,0.E0));
#80=DIRECTION('',(0.E0,-1.E0,0.E0));
#81=DIRECTION('',(1.E0,0.E0,0.E0));
#82=AXIS2_PLACEMENT_3D('',#79,#80,#81);
#84=CURVE_STYLE('',#22,POSITIVE_LENGTH_MEASURE(2.E-2),#13);
#85=PRESENTATION_STYLE_ASSIGNMENT((#84));
#86=STYLED_ITEM('',(#85),#83);
#87=CARTESIAN_POINT('',(0.E0,5.E-1,0.E0));
#88=DIRECTION('',(0.E0,1.E0,0.E0));
#89=DIRECTION('',(1.E0,0.E0,0.E0));
#90=AXIS2_PLACEMENT_3D('',#87,#88,#89);
#92=CURVE_STYLE('',#22,POSITIVE_LENGTH_MEASURE(2.E-2),#13);
#93=PRESENTATION_STYLE_ASSIGNMENT((#92));
#94=STYLED_ITEM('',(#93),#91);
#95=CARTESIAN_POINT('',(0.E0,5.E-1,0.E0));
#96=DIRECTION('',(0.E0,1.E0,0.E0));
#97=DIRECTION('',(1.E0,0.E0,0.E0));
#98=AXIS2_PLACEMENT_3D('',#95,#96,#97);
#100=CURVE_STYLE('',#22,POSITIVE_LENGTH_MEASURE(2.E-2),#13);
#101=PRESENTATION_STYLE_ASSIGNMENT((#100));
#102=STYLED_ITEM('',(#101),#99);
#103=DIRECTION('',(0.E0,1.E0,0.E0));
#104=VECTOR('',#103,1.2E0);
#105=CARTESIAN_POINT('',(7.5E-1,5.E-1,0.E0));
#106=LINE('',#105,#104);
#107=CURVE_STYLE('',#22,POSITIVE_LENGTH_MEASURE(2.E-2),#13);
#108=PRESENTATION_STYLE_ASSIGNMENT((#107));
#109=STYLED_ITEM('',(#108),#106);
#110=CARTESIAN_POINT('',(0.E0,5.E-1,0.E0));
#111=DIRECTION('',(0.E0,-1.E0,0.E0));
#112=DIRECTION('',(1.E0,0.E0,0.E0));
#113=AXIS2_PLACEMENT_3D('',#110,#111,#112);
#115=CURVE_STYLE('',#22,POSITIVE_LENGTH_MEASURE(2.E-2),#13);
#116=PRESENTATION_STYLE_ASSIGNMENT((#115));
#117=STYLED_ITEM('',(#116),#114);
#118=DIRECTION('',(0.E0,1.E0,0.E0));
#119=VECTOR('',#118,1.2E0);
#120=CARTESIAN_POINT('',(-7.5E-1,5.E-1,0.E0));
#121=LINE('',#120,#119);
#122=CURVE_STYLE('',#22,POSITIVE_LENGTH_MEASURE(2.E-2),#13);
#123=PRESENTATION_STYLE_ASSIGNMENT((#122));
#124=STYLED_ITEM('',(#123),#121);
#125=CARTESIAN_POINT('',(0.E0,1.7E0,0.E0));
#126=DIRECTION('',(0.E0,-1.E0,0.E0));
#127=DIRECTION('',(1.E0,0.E0,0.E0));
#128=AXIS2_PLACEMENT_3D('',#125,#126,#127);
#130=CURVE_STYLE('',#22,POSITIVE_LENGTH_MEASURE(2.E-2),#13);
#131=PRESENTATION_STYLE_ASSIGNMENT((#130));
#132=STYLED_ITEM('',(#131),#129);
#133=CARTESIAN_POINT('',(0.E0,1.7E0,0.E0));
#134=DIRECTION('',(0.E0,1.E0,0.E0));
#135=DIRECTION('',(1.E0,0.E0,0.E0));
#136=AXIS2_PLACEMENT_3D('',#133,#134,#135);
#138=CURVE_STYLE('',#22,POSITIVE_LENGTH_MEASURE(2.E-2),#13);
#139=PRESENTATION_STYLE_ASSIGNMENT((#138));
#140=STYLED_ITEM('',(#139),#137);
#141=CARTESIAN_POINT('',(0.E0,1.7E0,0.E0));
#142=DIRECTION('',(0.E0,1.E0,0.E0));
#143=DIRECTION('',(1.E0,0.E0,0.E0));
#144=AXIS2_PLACEMENT_3D('',#141,#142,#143);
#146=CURVE_STYLE('',#22,POSITIVE_LENGTH_MEASURE(2.E-2),#13);
#147=PRESENTATION_STYLE_ASSIGNMENT((#146));
#148=STYLED_ITEM('',(#147),#145);
#149=DIRECTION('',(-9.950371902100E-2,9.950371902100E-1,0.E0));
#150=VECTOR('',#149,5.024937810560E-1);
#151=CARTESIAN_POINT('',(8.E-1,1.7E0,0.E0));
#152=LINE('',#151,#150);
#153=CURVE_STYLE('',#22,POSITIVE_LENGTH_MEASURE(2.E-2),#13);
#154=PRESENTATION_STYLE_ASSIGNMENT((#153));
#155=STYLED_ITEM('',(#154),#152);
#156=CARTESIAN_POINT('',(0.E0,1.7E0,0.E0));
#157=DIRECTION('',(0.E0,-1.E0,0.E0));
#158=DIRECTION('',(1.E0,0.E0,0.E0));
#159=AXIS2_PLACEMENT_3D('',#156,#157,#158);
#161=CURVE_STYLE('',#22,POSITIVE_LENGTH_MEASURE(2.E-2),#13);
#162=PRESENTATION_STYLE_ASSIGNMENT((#161));
#163=STYLED_ITEM('',(#162),#160);
#164=DIRECTION('',(9.950371902100E-2,9.950371902100E-1,0.E0));
#165=VECTOR('',#164,5.024937810560E-1);
#166=CARTESIAN_POINT('',(-8.E-1,1.7E0,0.E0));
#167=LINE('',#166,#165);
#168=CURVE_STYLE('',#22,POSITIVE_LENGTH_MEASURE(2.E-2),#13);
#169=PRESENTATION_STYLE_ASSIGNMENT((#168));
#170=STYLED_ITEM('',(#169),#167);
#171=DIRECTION('',(0.E0,1.E0,0.E0));
#172=VECTOR('',#171,1.6E0);
#173=CARTESIAN_POINT('',(7.5E-1,2.2E0,0.E0));
#174=LINE('',#173,#172);
#175=CURVE_STYLE('',#22,POSITIVE_LENGTH_MEASURE(2.E-2),#13);
#176=PRESENTATION_STYLE_ASSIGNMENT((#175));
#177=STYLED_ITEM('',(#176),#174);
#178=CARTESIAN_POINT('',(0.E0,2.2E0,0.E0));
#179=DIRECTION('',(0.E0,-1.E0,0.E0));
#180=DIRECTION('',(1.E0,0.E0,0.E0));
#181=AXIS2_PLACEMENT_3D('',#178,#179,#180);
#183=CURVE_STYLE('',#22,POSITIVE_LENGTH_MEASURE(2.E-2),#13);
#184=PRESENTATION_STYLE_ASSIGNMENT((#183));
#185=STYLED_ITEM('',(#184),#182);
#186=DIRECTION('',(0.E0,1.E0,0.E0));
#187=VECTOR('',#186,1.6E0);
#188=CARTESIAN_POINT('',(-7.5E-1,2.2E0,0.E0));
#189=LINE('',#188,#187);
#190=CURVE_STYLE('',#22,POSITIVE_LENGTH_MEASURE(2.E-2),#13);
#191=PRESENTATION_STYLE_ASSIGNMENT((#190));
#192=STYLED_ITEM('',(#191),#189);
#193=CARTESIAN_POINT('',(0.E0,2.2E0,0.E0));
#194=DIRECTION('',(0.E0,1.E0,0.E0));
#195=DIRECTION('',(1.E0,0.E0,0.E0));
#196=AXIS2_PLACEMENT_3D('',#193,#194,#195);
#198=CURVE_STYLE('',#22,POSITIVE_LENGTH_MEASURE(2.E-2),#13);
#199=PRESENTATION_STYLE_ASSIGNMENT((#198));
#200=STYLED_ITEM('',(#199),#197);
#201=CARTESIAN_POINT('',(0.E0,3.8E0,0.E0));
#202=DIRECTION('',(0.E0,1.E0,0.E0));
#203=DIRECTION('',(1.E0,0.E0,0.E0));
#204=AXIS2_PLACEMENT_3D('',#201,#202,#203);
#206=CURVE_STYLE('',#22,POSITIVE_LENGTH_MEASURE(2.E-2),#13);
#207=PRESENTATION_STYLE_ASSIGNMENT((#206));
#208=STYLED_ITEM('',(#207),#205);
#209=CARTESIAN_POINT('',(5.5E-1,3.8E0,0.E0));
#210=DIRECTION('',(0.E0,0.E0,1.E0));
#211=DIRECTION('',(1.E0,0.E0,0.E0));
#212=AXIS2_PLACEMENT_3D('',#209,#210,#211);
#214=CURVE_STYLE('',#22,POSITIVE_LENGTH_MEASURE(2.E-2),#13);
#215=PRESENTATION_STYLE_ASSIGNMENT((#214));
#216=STYLED_ITEM('',(#215),#213);
#217=CARTESIAN_POINT('',(0.E0,3.8E0,0.E0));
#218=DIRECTION('',(0.E0,-1.E0,0.E0));
#219=DIRECTION('',(1.E0,0.E0,0.E0));
#220=AXIS2_PLACEMENT_3D('',#217,#218,#219);
#222=CURVE_STYLE('',#22,POSITIVE_LENGTH_MEASURE(2.E-2),#13);
#223=PRESENTATION_STYLE_ASSIGNMENT((#222));
#224=STYLED_ITEM('',(#223),#221);
#225=CARTESIAN_POINT('',(-5.5E-1,3.8E0,0.E0));
#226=DIRECTION('',(0.E0,0.E0,-1.E0));
#227=DIRECTION('',(-1.E0,0.E0,0.E0));
#228=AXIS2_PLACEMENT_3D('',#225,#226,#227);
#230=CURVE_STYLE('',#22,POSITIVE_LENGTH_MEASURE(2.E-2),#13);
#231=PRESENTATION_STYLE_ASSIGNMENT((#230));
#232=STYLED_ITEM('',(#231),#229);
#233=CARTESIAN_POINT('',(0.E0,4.E0,0.E0));
#234=DIRECTION('',(0.E0,-1.E0,0.E0));
#235=DIRECTION('',(1.E0,0.E0,0.E0));
#236=AXIS2_PLACEMENT_3D('',#233,#234,#235);
#238=CURVE_STYLE('',#22,POSITIVE_LENGTH_MEASURE(2.E-2),#13);
#239=PRESENTATION_STYLE_ASSIGNMENT((#238));
#240=STYLED_ITEM('',(#239),#237);
#241=CARTESIAN_POINT('',(0.E0,4.E0,0.E0));
#242=DIRECTION('',(0.E0,1.E0,0.E0));
#243=DIRECTION('',(1.E0,0.E0,0.E0));
#244=AXIS2_PLACEMENT_3D('',#241,#242,#243);
#246=CURVE_STYLE('',#22,POSITIVE_LENGTH_MEASURE(2.E-2),#13);
#247=PRESENTATION_STYLE_ASSIGNMENT((#246));
#248=STYLED_ITEM('',(#247),#245);
#249=CARTESIAN_POINT('',(0.E0,4.E0,0.E0));
#250=DIRECTION('',(0.E0,1.E0,0.E0));
#251=DIRECTION('',(1.E0,0.E0,0.E0));
#252=AXIS2_PLACEMENT_3D('',#249,#250,#251);
#254=CURVE_STYLE('',#22,POSITIVE_LENGTH_MEASURE(2.E-2),#13);
#255=PRESENTATION_STYLE_ASSIGNMENT((#254));
#256=STYLED_ITEM('',(#255),#253);
#257=DIRECTION('',(0.E0,1.E0,0.E0));
#258=VECTOR('',#257,1.05E0);
#259=CARTESIAN_POINT('',(4.5E-1,4.E0,0.E0));
#260=LINE('',#259,#258);
#261=CURVE_STYLE('',#22,POSITIVE_LENGTH_MEASURE(2.E-2),#13);
#262=PRESENTATION_STYLE_ASSIGNMENT((#261));
#263=STYLED_ITEM('',(#262),#260);
#264=CARTESIAN_POINT('',(0.E0,4.E0,0.E0));
#265=DIRECTION('',(0.E0,-1.E0,0.E0));
#266=DIRECTION('',(1.E0,0.E0,0.E0));
#267=AXIS2_PLACEMENT_3D('',#264,#265,#266);
#269=CURVE_STYLE('',#22,POSITIVE_LENGTH_MEASURE(2.E-2),#13);
#270=PRESENTATION_STYLE_ASSIGNMENT((#269));
#271=STYLED_ITEM('',(#270),#268);
#272=DIRECTION('',(0.E0,1.E0,0.E0));
#273=VECTOR('',#272,1.05E0);
#274=CARTESIAN_POINT('',(-4.5E-1,4.E0,0.E0));
#275=LINE('',#274,#273);
#276=CURVE_STYLE('',#22,POSITIVE_LENGTH_MEASURE(2.E-2),#13);
#277=PRESENTATION_STYLE_ASSIGNMENT((#276));
#278=STYLED_ITEM('',(#277),#275);
#279=CARTESIAN_POINT('',(0.E0,5.05E0,0.E0));
#280=DIRECTION('',(0.E0,0.E0,1.E0));
#281=DIRECTION('',(1.E0,0.E0,0.E0));
#282=AXIS2_PLACEMENT_3D('',#279,#280,#281);
#284=CURVE_STYLE('',#22,POSITIVE_LENGTH_MEASURE(2.E-2),#13);
#285=PRESENTATION_STYLE_ASSIGNMENT((#284));
#286=STYLED_ITEM('',(#285),#283);
#287=CARTESIAN_POINT('',(0.E0,5.05E0,0.E0));
#288=DIRECTION('',(0.E0,-1.E0,0.E0));
#289=DIRECTION('',(1.E0,0.E0,0.E0));
#290=AXIS2_PLACEMENT_3D('',#287,#288,#289);
#292=CURVE_STYLE('',#22,POSITIVE_LENGTH_MEASURE(2.E-2),#13);
#293=PRESENTATION_STYLE_ASSIGNMENT((#292));
#294=STYLED_ITEM('',(#293),#291);
#295=CARTESIAN_POINT('',(0.E0,5.05E0,0.E0));
#296=DIRECTION('',(0.E0,0.E0,-1.E0));
#297=DIRECTION('',(-1.E0,0.E0,0.E0));
#298=AXIS2_PLACEMENT_3D('',#295,#296,#297);
#300=CURVE_STYLE('',#22,POSITIVE_LENGTH_MEASURE(2.E-2),#13);
#301=PRESENTATION_STYLE_ASSIGNMENT((#300));
#302=STYLED_ITEM('',(#301),#299);
#303=CARTESIAN_POINT('',(0.E0,5.05E0,0.E0));
#304=DIRECTION('',(0.E0,1.E0,0.E0));
#305=DIRECTION('',(1.E0,0.E0,0.E0));
#306=AXIS2_PLACEMENT_3D('',#303,#304,#305);
#308=CURVE_STYLE('',#22,POSITIVE_LENGTH_MEASURE(2.E-2),#13);
#309=PRESENTATION_STYLE_ASSIGNMENT((#308));
#310=STYLED_ITEM('',(#309),#307);
#311=CARTESIAN_POINT('',(9.E-1,0.E0,0.E0));
#312=CARTESIAN_POINT('',(1.E0,1.E-1,0.E0));
#313=VERTEX_POINT('',#311);
#314=VERTEX_POINT('',#312);
#315=CARTESIAN_POINT('',(1.E0,5.E-1,0.E0));
#316=VERTEX_POINT('',#315);
#317=CARTESIAN_POINT('',(7.5E-1,5.E-1,0.E0));
#318=CARTESIAN_POINT('',(7.5E-1,1.7E0,0.E0));
#319=VERTEX_POINT('',#317);
#320=VERTEX_POINT('',#318);
#321=CARTESIAN_POINT('',(8.E-1,1.7E0,0.E0));
#322=CARTESIAN_POINT('',(7.5E-1,2.2E0,0.E0));
#323=VERTEX_POINT('',#321);
#324=VERTEX_POINT('',#322);
#325=CARTESIAN_POINT('',(7.5E-1,3.8E0,0.E0));
#326=VERTEX_POINT('',#325);
#327=CARTESIAN_POINT('',(5.5E-1,4.E0,0.E0));
#328=VERTEX_POINT('',#327);
#329=CARTESIAN_POINT('',(4.5E-1,4.E0,0.E0));
#330=CARTESIAN_POINT('',(4.5E-1,5.05E0,0.E0));
#331=VERTEX_POINT('',#329);
#332=VERTEX_POINT('',#330);
#333=CARTESIAN_POINT('',(0.E0,5.5E0,0.E0));
#334=VERTEX_POINT('',#333);
#335=CARTESIAN_POINT('',(-9.E-1,0.E0,0.E0));
#336=CARTESIAN_POINT('',(-1.E0,1.E-1,0.E0));
#337=VERTEX_POINT('',#335);
#338=VERTEX_POINT('',#336);
#339=CARTESIAN_POINT('',(-1.E0,5.E-1,0.E0));
#340=VERTEX_POINT('',#339);
#341=CARTESIAN_POINT('',(-7.5E-1,5.E-1,0.E0));
#342=CARTESIAN_POINT('',(-7.5E-1,1.7E0,0.E0));
#343=VERTEX_POINT('',#341);
#344=VERTEX_POINT('',#342);
#345=CARTESIAN_POINT('',(-8.E-1,1.7E0,0.E0));
#346=CARTESIAN_POINT('',(-7.5E-1,2.2E0,0.E0));
#347=VERTEX_POINT('',#345);
#348=VERTEX_POINT('',#346);
#349=CARTESIAN_POINT('',(-7.5E-1,3.8E0,0.E0));
#350=VERTEX_POINT('',#349);
#351=CARTESIAN_POINT('',(-5.5E-1,4.E0,0.E0));
#352=VERTEX_POINT('',#351);
#353=CARTESIAN_POINT('',(-4.5E-1,4.E0,0.E0));
#354=CARTESIAN_POINT('',(-4.5E-1,5.05E0,0.E0));
#355=VERTEX_POINT('',#353);
#356=VERTEX_POINT('',#354);
#357=CARTESIAN_POINT('',(0.E0,0.E0,0.E0));
#358=DIRECTION('',(0.E0,1.E0,0.E0));
#359=DIRECTION('',(1.E0,0.E0,0.E0));
#360=AXIS2_PLACEMENT_3D('',#357,#358,#359);
#361=PLANE('',#360);
#363=ORIENTED_EDGE('',*,*,#362,.F.);
#365=ORIENTED_EDGE('',*,*,#364,.T.);
#366=EDGE_LOOP('',(#363,#365));
#367=FACE_OUTER_BOUND('',#366,.F.);
#368=ADVANCED_FACE('',(#367),#361,.F.);
#369=CARTESIAN_POINT('',(0.E0,5.E-2,0.E0));
#370=DIRECTION('',(0.E0,1.E0,0.E0));
#371=DIRECTION('',(1.E0,0.E0,0.E0));
#372=AXIS2_PLACEMENT_3D('',#369,#370,#371);
#373=CONICAL_SURFACE('',#372,9.5E-1,4.5E1);
#375=ORIENTED_EDGE('',*,*,#374,.F.);
#376=ORIENTED_EDGE('',*,*,#362,.T.);
#378=ORIENTED_EDGE('',*,*,#377,.T.);
#380=ORIENTED_EDGE('',*,*,#379,.F.);
#381=EDGE_LOOP('',(#375,#376,#378,#380));
#382=FACE_OUTER_BOUND('',#381,.F.);
#383=ADVANCED_FACE('',(#382),#373,.T.);
#384=CARTESIAN_POINT('',(0.E0,5.E-2,0.E0));
#385=DIRECTION('',(0.E0,1.E0,0.E0));
#386=DIRECTION('',(1.E0,0.E0,0.E0));
#387=AXIS2_PLACEMENT_3D('',#384,#385,#386);
#388=CONICAL_SURFACE('',#387,9.5E-1,4.5E1);
#389=ORIENTED_EDGE('',*,*,#374,.T.);
#391=ORIENTED_EDGE('',*,*,#390,.T.);
#392=ORIENTED_EDGE('',*,*,#377,.F.);
#393=ORIENTED_EDGE('',*,*,#364,.F.);
#394=EDGE_LOOP('',(#389,#391,#392,#393));
#395=FACE_OUTER_BOUND('',#394,.F.);
#396=ADVANCED_FACE('',(#395),#388,.T.);
#397=CARTESIAN_POINT('',(0.E0,-2.75E-1,0.E0));
#398=DIRECTION('',(0.E0,1.E0,0.E0));
#399=DIRECTION('',(1.E0,0.E0,0.E0));
#400=AXIS2_PLACEMENT_3D('',#397,#398,#399);
#401=CYLINDRICAL_SURFACE('',#400,1.E0);
#403=ORIENTED_EDGE('',*,*,#402,.T.);
#405=ORIENTED_EDGE('',*,*,#404,.T.);
#407=ORIENTED_EDGE('',*,*,#406,.F.);
#408=ORIENTED_EDGE('',*,*,#390,.F.);
#409=EDGE_LOOP('',(#403,#405,#407,#408));
#410=FACE_OUTER_BOUND('',#409,.F.);
#411=ADVANCED_FACE('',(#410),#401,.T.);
#412=CARTESIAN_POINT('',(0.E0,-2.75E-1,0.E0));
#413=DIRECTION('',(0.E0,1.E0,0.E0));
#414=DIRECTION('',(1.E0,0.E0,0.E0));
#415=AXIS2_PLACEMENT_3D('',#412,#413,#414);
#416=CYLINDRICAL_SURFACE('',#415,1.E0);
#417=ORIENTED_EDGE('',*,*,#402,.F.);
#418=ORIENTED_EDGE('',*,*,#379,.T.);
#419=ORIENTED_EDGE('',*,*,#406,.T.);
#421=ORIENTED_EDGE('',*,*,#420,.F.);
#422=EDGE_LOOP('',(#417,#418,#419,#421));
#423=FACE_OUTER_BOUND('',#422,.F.);
#424=ADVANCED_FACE('',(#423),#416,.T.);
#425=CARTESIAN_POINT('',(0.E0,5.E-1,0.E0));
#426=DIRECTION('',(0.E0,1.E0,0.E0));
#427=DIRECTION('',(1.E0,0.E0,0.E0));
#428=AXIS2_PLACEMENT_3D('',#425,#426,#427);
#429=PLANE('',#428);
#430=ORIENTED_EDGE('',*,*,#420,.T.);
#431=ORIENTED_EDGE('',*,*,#404,.F.);
#432=EDGE_LOOP('',(#430,#431));
#433=FACE_OUTER_BOUND('',#432,.F.);
#435=ORIENTED_EDGE('',*,*,#434,.T.);
#437=ORIENTED_EDGE('',*,*,#436,.F.);
#438=EDGE_LOOP('',(#435,#437));
#439=FACE_BOUND('',#438,.F.);
#440=ADVANCED_FACE('',(#433,#439),#429,.T.);
#441=CARTESIAN_POINT('',(0.E0,-2.75E-1,0.E0));
#442=DIRECTION('',(0.E0,1.E0,0.E0));
#443=DIRECTION('',(1.E0,0.E0,0.E0));
#444=AXIS2_PLACEMENT_3D('',#441,#442,#443);
#445=CYLINDRICAL_SURFACE('',#444,7.5E-1);
#447=ORIENTED_EDGE('',*,*,#446,.T.);
#449=ORIENTED_EDGE('',*,*,#448,.T.);
#451=ORIENTED_EDGE('',*,*,#450,.F.);
#452=ORIENTED_EDGE('',*,*,#434,.F.);
#453=EDGE_LOOP('',(#447,#449,#451,#452));
#454=FACE_OUTER_BOUND('',#453,.F.);
#455=ADVANCED_FACE('',(#454),#445,.T.);
#456=CARTESIAN_POINT('',(0.E0,-2.75E-1,0.E0));
#457=DIRECTION('',(0.E0,1.E0,0.E0));
#458=DIRECTION('',(1.E0,0.E0,0.E0));
#459=AXIS2_PLACEMENT_3D('',#456,#457,#458);
#460=CYLINDRICAL_SURFACE('',#459,7.5E-1);
#461=ORIENTED_EDGE('',*,*,#446,.F.);
#462=ORIENTED_EDGE('',*,*,#436,.T.);
#463=ORIENTED_EDGE('',*,*,#450,.T.);
#465=ORIENTED_EDGE('',*,*,#464,.F.);
#466=EDGE_LOOP('',(#461,#462,#463,#465));
#467=FACE_OUTER_BOUND('',#466,.F.);
#468=ADVANCED_FACE('',(#467),#460,.T.);
#469=CARTESIAN_POINT('',(0.E0,1.7E0,0.E0));
#470=DIRECTION('',(0.E0,1.E0,0.E0));
#471=DIRECTION('',(1.E0,0.E0,0.E0));
#472=AXIS2_PLACEMENT_3D('',#469,#470,#471);
#473=PLANE('',#472);
#475=ORIENTED_EDGE('',*,*,#474,.T.);
#477=ORIENTED_EDGE('',*,*,#476,.F.);
#478=EDGE_LOOP('',(#475,#477));
#479=FACE_OUTER_BOUND('',#478,.F.);
#480=ORIENTED_EDGE('',*,*,#464,.T.);
#481=ORIENTED_EDGE('',*,*,#448,.F.);
#482=EDGE_LOOP('',(#480,#481));
#483=FACE_BOUND('',#482,.F.);
#484=ADVANCED_FACE('',(#479,#483),#473,.F.);
#485=CARTESIAN_POINT('',(0.E0,1.95E0,0.E0));
#486=DIRECTION('',(0.E0,-1.E0,0.E0));
#487=DIRECTION('',(-1.E0,0.E0,0.E0));
#488=AXIS2_PLACEMENT_3D('',#485,#486,#487);
#489=CONICAL_SURFACE('',#488,7.75E-1,5.710593137500E0);
#491=ORIENTED_EDGE('',*,*,#490,.T.);
#493=ORIENTED_EDGE('',*,*,#492,.T.);
#495=ORIENTED_EDGE('',*,*,#494,.F.);
#496=ORIENTED_EDGE('',*,*,#474,.F.);
#497=EDGE_LOOP('',(#491,#493,#495,#496));
#498=FACE_OUTER_BOUND('',#497,.F.);
#499=ADVANCED_FACE('',(#498),#489,.T.);
#500=CARTESIAN_POINT('',(0.E0,1.95E0,0.E0));
#501=DIRECTION('',(0.E0,-1.E0,0.E0));
#502=DIRECTION('',(-1.E0,0.E0,0.E0));
#503=AXIS2_PLACEMENT_3D('',#500,#501,#502);
#504=CONICAL_SURFACE('',#503,7.75E-1,5.710593137500E0);
#505=ORIENTED_EDGE('',*,*,#490,.F.);
#506=ORIENTED_EDGE('',*,*,#476,.T.);
#507=ORIENTED_EDGE('',*,*,#494,.T.);
#509=ORIENTED_EDGE('',*,*,#508,.F.);
#510=EDGE_LOOP('',(#505,#506,#507,#509));
#511=FACE_OUTER_BOUND('',#510,.F.);
#512=ADVANCED_FACE('',(#511),#504,.T.);
#513=CARTESIAN_POINT('',(0.E0,-2.75E-1,0.E0));
#514=DIRECTION('',(0.E0,1.E0,0.E0));
#515=DIRECTION('',(1.E0,0.E0,0.E0));
#516=AXIS2_PLACEMENT_3D('',#513,#514,#515);
#517=CYLINDRICAL_SURFACE('',#516,7.5E-1);
#519=ORIENTED_EDGE('',*,*,#518,.F.);
#520=ORIENTED_EDGE('',*,*,#508,.T.);
#522=ORIENTED_EDGE('',*,*,#521,.T.);
#524=ORIENTED_EDGE('',*,*,#523,.F.);
#525=EDGE_LOOP('',(#519,#520,#522,#524));
#526=FACE_OUTER_BOUND('',#525,.F.);
#527=ADVANCED_FACE('',(#526),#517,.T.);
#528=CARTESIAN_POINT('',(0.E0,-2.75E-1,0.E0));
#529=DIRECTION('',(0.E0,1.E0,0.E0));
#530=DIRECTION('',(1.E0,0.E0,0.E0));
#531=AXIS2_PLACEMENT_3D('',#528,#529,#530);
#532=CYLINDRICAL_SURFACE('',#531,7.5E-1);
#533=ORIENTED_EDGE('',*,*,#518,.T.);
#535=ORIENTED_EDGE('',*,*,#534,.T.);
#536=ORIENTED_EDGE('',*,*,#521,.F.);
#537=ORIENTED_EDGE('',*,*,#492,.F.);
#538=EDGE_LOOP('',(#533,#535,#536,#537));
#539=FACE_OUTER_BOUND('',#538,.F.);
#540=ADVANCED_FACE('',(#539),#532,.T.);
#541=CARTESIAN_POINT('',(0.E0,3.8E0,0.E0));
#542=DIRECTION('',(0.E0,1.E0,0.E0));
#543=DIRECTION('',(1.E0,0.E0,0.E0));
#544=AXIS2_PLACEMENT_3D('',#541,#542,#543);
#545=TOROIDAL_SURFACE('',#544,5.5E-1,2.E-1);
#547=ORIENTED_EDGE('',*,*,#546,.T.);
#549=ORIENTED_EDGE('',*,*,#548,.T.);
#551=ORIENTED_EDGE('',*,*,#550,.F.);
#552=ORIENTED_EDGE('',*,*,#534,.F.);
#553=EDGE_LOOP('',(#547,#549,#551,#552));
#554=FACE_OUTER_BOUND('',#553,.F.);
#555=ADVANCED_FACE('',(#554),#545,.T.);
#556=CARTESIAN_POINT('',(0.E0,3.8E0,0.E0));
#557=DIRECTION('',(0.E0,1.E0,0.E0));
#558=DIRECTION('',(1.E0,0.E0,0.E0));
#559=AXIS2_PLACEMENT_3D('',#556,#557,#558);
#560=TOROIDAL_SURFACE('',#559,5.5E-1,2.E-1);
#561=ORIENTED_EDGE('',*,*,#546,.F.);
#562=ORIENTED_EDGE('',*,*,#523,.T.);
#563=ORIENTED_EDGE('',*,*,#550,.T.);
#565=ORIENTED_EDGE('',*,*,#564,.F.);
#566=EDGE_LOOP('',(#561,#562,#563,#565));
#567=FACE_OUTER_BOUND('',#566,.F.);
#568=ADVANCED_FACE('',(#567),#560,.T.);
#569=CARTESIAN_POINT('',(0.E0,4.E0,0.E0));
#570=DIRECTION('',(0.E0,1.E0,0.E0));
#571=DIRECTION('',(1.E0,0.E0,0.E0));
#572=AXIS2_PLACEMENT_3D('',#569,#570,#571);
#573=PLANE('',#572);
#574=ORIENTED_EDGE('',*,*,#564,.T.);
#575=ORIENTED_EDGE('',*,*,#548,.F.);
#576=EDGE_LOOP('',(#574,#575));
#577=FACE_OUTER_BOUND('',#576,.F.);
#579=ORIENTED_EDGE('',*,*,#578,.T.);
#581=ORIENTED_EDGE('',*,*,#580,.F.);
#582=EDGE_LOOP('',(#579,#581));
#583=FACE_BOUND('',#582,.F.);
#584=ADVANCED_FACE('',(#577,#583),#573,.T.);
#585=CARTESIAN_POINT('',(0.E0,-2.75E-1,0.E0));
#586=DIRECTION('',(0.E0,1.E0,0.E0));
#587=DIRECTION('',(1.E0,0.E0,0.E0));
#588=AXIS2_PLACEMENT_3D('',#585,#586,#587);
#589=CYLINDRICAL_SURFACE('',#588,4.5E-1);
#591=ORIENTED_EDGE('',*,*,#590,.T.);
#593=ORIENTED_EDGE('',*,*,#592,.T.);
#595=ORIENTED_EDGE('',*,*,#594,.F.);
#596=ORIENTED_EDGE('',*,*,#578,.F.);
#597=EDGE_LOOP('',(#591,#593,#595,#596));
#598=FACE_OUTER_BOUND('',#597,.F.);
#599=ADVANCED_FACE('',(#598),#589,.T.);
#600=CARTESIAN_POINT('',(0.E0,-2.75E-1,0.E0));
#601=DIRECTION('',(0.E0,1.E0,0.E0));
#602=DIRECTION('',(1.E0,0.E0,0.E0));
#603=AXIS2_PLACEMENT_3D('',#600,#601,#602);
#604=CYLINDRICAL_SURFACE('',#603,4.5E-1);
#605=ORIENTED_EDGE('',*,*,#590,.F.);
#606=ORIENTED_EDGE('',*,*,#580,.T.);
#607=ORIENTED_EDGE('',*,*,#594,.T.);
#609=ORIENTED_EDGE('',*,*,#608,.F.);
#610=EDGE_LOOP('',(#605,#606,#607,#609));
#611=FACE_OUTER_BOUND('',#610,.F.);
#612=ADVANCED_FACE('',(#611),#604,.T.);
#613=CARTESIAN_POINT('',(0.E0,5.05E0,0.E0));
#614=DIRECTION('',(0.E0,1.E0,0.E0));
#615=DIRECTION('',(1.E0,0.E0,0.E0));
#616=AXIS2_PLACEMENT_3D('',#613,#614,#615);
#617=SPHERICAL_SURFACE('',#616,4.5E-1);
#619=ORIENTED_EDGE('',*,*,#618,.F.);
#620=ORIENTED_EDGE('',*,*,#608,.T.);
#622=ORIENTED_EDGE('',*,*,#621,.T.);
#623=EDGE_LOOP('',(#619,#620,#622));
#624=FACE_OUTER_BOUND('',#623,.F.);
#625=ADVANCED_FACE('',(#624),#617,.T.);
#626=CARTESIAN_POINT('',(0.E0,5.05E0,0.E0));
#627=DIRECTION('',(0.E0,1.E0,0.E0));
#628=DIRECTION('',(1.E0,0.E0,0.E0));
#629=AXIS2_PLACEMENT_3D('',#626,#627,#628);
#630=SPHERICAL_SURFACE('',#629,4.5E-1);
#631=ORIENTED_EDGE('',*,*,#618,.T.);
#632=ORIENTED_EDGE('',*,*,#621,.F.);
#633=ORIENTED_EDGE('',*,*,#592,.F.);
#634=EDGE_LOOP('',(#631,#632,#633));
#635=FACE_OUTER_BOUND('',#634,.F.);
#636=ADVANCED_FACE('',(#635),#630,.T.);
#639=FILL_AREA_STYLE_COLOUR('',#13);
#640=FILL_AREA_STYLE('',(#639));
#641=SURFACE_STYLE_FILL_AREA(#640);
#642=SURFACE_SIDE_STYLE('',(#641));
#643=SURFACE_STYLE_USAGE(.BOTH.,#642);
#644=PRESENTATION_STYLE_ASSIGNMENT((#643));
#17=STYLED_ITEM('',(#644),#638);
#646=DIMENSIONAL_EXPONENTS(0.E0,0.E0,0.E0,0.E0,0.E0,0.E0,0.E0);
#648=PLANE_ANGLE_MEASURE_WITH_UNIT(PLANE_ANGLE_MEASURE(1.745329251994E-2),#647);
#649=(CONVERSION_BASED_UNIT('DEGREE',#648)NAMED_UNIT(*)PLANE_ANGLE_UNIT());
#651=UNCERTAINTY_MEASURE_WITH_UNIT(LENGTH_MEASURE(6.184411052089E-4),#645,
'closure',
'Maximum model space distance between geometric entities at asserted connectivities');
#652=(GEOMETRIC_REPRESENTATION_CONTEXT(3)GLOBAL_UNCERTAINTY_ASSIGNED_CONTEXT((
#651))GLOBAL_UNIT_ASSIGNED_CONTEXT((#645,#649,#650))REPRESENTATION_CONTEXT
('ID1','3'));
#654=MECHANICAL_DESIGN_GEOMETRIC_PRESENTATION_REPRESENTATION('',(#25,#33,#40,
#48,#56,#63,#71,#78,#86,#94,#102,#109,#117,#124,#132,#140,#148,#155,#163,#170,
#177,#185,#192,#200,#208,#216,#224,#232,#240,#248,#256,#263,#271,#278,#286,#294,
#302,#310,#17),#652);
#655=APPLICATION_CONTEXT(
'CONFIGURATION CONTROLLED 3D DESIGNS OF MECHANICAL PARTS AND ASSEMBLIES');
#656=APPLICATION_PROTOCOL_DEFINITION('international standard',
'config_control_design',1994,#655);
#657=DESIGN_CONTEXT('',#655,'design');
#658=MECHANICAL_CONTEXT('',#655,'mechanical');
#659=PRODUCT('P70-1020045','P70-1020045','NOT SPECIFIED',(#658));
#660=PRODUCT_DEFINITION_FORMATION_WITH_SPECIFIED_SOURCE('2','LAST_VERSION',#659,
.MADE.);
#664=PRODUCT_CATEGORY('part','');
#665=PRODUCT_RELATED_PRODUCT_CATEGORY('detail','',(#659));
#666=PRODUCT_CATEGORY_RELATIONSHIP('','',#664,#665);
#667=SECURITY_CLASSIFICATION_LEVEL('unclassified');
#668=SECURITY_CLASSIFICATION('','',#667);
#669=CC_DESIGN_SECURITY_CLASSIFICATION(#668,(#660));
#670=APPROVAL_STATUS('approved');
#671=APPROVAL(#670,'');
#672=CC_DESIGN_APPROVAL(#671,(#668,#660,#661));
#673=CALENDAR_DATE(121,2,7);
#674=COORDINATED_UNIVERSAL_TIME_OFFSET(1,0,.AHEAD.);
#675=LOCAL_TIME(13,46,2.E1,#674);
#676=DATE_AND_TIME(#673,#675);
#677=APPROVAL_DATE_TIME(#676,#671);
#678=DATE_TIME_ROLE('creation_date');
#679=CC_DESIGN_DATE_AND_TIME_ASSIGNMENT(#676,#678,(#661));
#680=DATE_TIME_ROLE('classification_date');
#681=CC_DESIGN_DATE_AND_TIME_ASSIGNMENT(#676,#680,(#668));
#682=PERSON('UNSPECIFIED','UNSPECIFIED',$,$,$,$);
#683=ORGANIZATION('UNSPECIFIED','UNSPECIFIED','UNSPECIFIED');
#684=PERSON_AND_ORGANIZATION(#682,#683);
#685=APPROVAL_ROLE('approver');
#686=APPROVAL_PERSON_ORGANIZATION(#684,#671,#685);
#687=PERSON_AND_ORGANIZATION_ROLE('creator');
#688=CC_DESIGN_PERSON_AND_ORGANIZATION_ASSIGNMENT(#684,#687,(#660,#661));
#689=PERSON_AND_ORGANIZATION_ROLE('design_supplier');
#690=CC_DESIGN_PERSON_AND_ORGANIZATION_ASSIGNMENT(#684,#689,(#660));
#691=PERSON_AND_ORGANIZATION_ROLE('classification_officer');
#692=CC_DESIGN_PERSON_AND_ORGANIZATION_ASSIGNMENT(#684,#691,(#668));
#693=PERSON_AND_ORGANIZATION_ROLE('design_owner');
#694=CC_DESIGN_PERSON_AND_ORGANIZATION_ASSIGNMENT(#684,#693,(#659));
#1=COLOUR_RGB('',0.E0,2.8E-1,0.E0);
#2=COLOUR_RGB('',0.E0,4.4E-1,1.E0);
#3=COLOUR_RGB('',0.E0,7.E-1,0.E0);
#4=COLOUR_RGB('',1.28E-1,1.28E-1,1.28E-1);
#5=COLOUR_RGB('',1.88E-1,1.88E-1,1.88E-1);
#6=COLOUR_RGB('',4.6E-1,4.6E-1,4.6E-1);
#7=COLOUR_RGB('',4.84E-1,7.7E-2,7.4E-2);
#8=COLOUR_RGB('',6.35294E-1,6.86275E-1,7.4902E-1);
#9=COLOUR_RGB('',7.7E-1,8.2E-1,8.7E-1);
#10=COLOUR_RGB('',8.04E-1,7.71E-1,6.03E-1);
#11=COLOUR_RGB('',8.5E-1,9.E-1,9.2E-1);
#12=COLOUR_RGB('',9.27184E-1,9.27184E-1,9.27184E-1);
#13=COLOUR_RGB('',9.6E-1,7.62E-1,1.67E-1);
#14=COLOUR_RGB('',1.E0,5.4E-1,3.1E-1);
#15=COLOUR_RGB('',1.E0,8.07843E-1,4.58824E-1);
#16=DRAUGHTING_PRE_DEFINED_COLOUR('white');
#30=CIRCLE('',#29,9.E-1);
#45=CIRCLE('',#44,9.E-1);
#53=CIRCLE('',#52,1.E0);
#68=CIRCLE('',#67,1.E0);
#83=CIRCLE('',#82,1.E0);
#91=CIRCLE('',#90,1.E0);
#99=CIRCLE('',#98,7.5E-1);
#114=CIRCLE('',#113,7.5E-1);
#129=CIRCLE('',#128,7.5E-1);
#137=CIRCLE('',#136,7.5E-1);
#145=CIRCLE('',#144,8.E-1);
#160=CIRCLE('',#159,8.E-1);
#182=CIRCLE('',#181,7.5E-1);
#197=CIRCLE('',#196,7.5E-1);
#205=CIRCLE('',#204,7.5E-1);
#213=CIRCLE('',#212,2.E-1);
#221=CIRCLE('',#220,7.5E-1);
#229=CIRCLE('',#228,2.E-1);
#237=CIRCLE('',#236,5.5E-1);
#245=CIRCLE('',#244,5.5E-1);
#253=CIRCLE('',#252,4.5E-1);
#268=CIRCLE('',#267,4.5E-1);
#283=CIRCLE('',#282,4.5E-1);
#291=CIRCLE('',#290,4.5E-1);
#299=CIRCLE('',#298,4.5E-1);
#307=CIRCLE('',#306,4.5E-1);
#362=EDGE_CURVE('',#313,#337,#30,.T.);
#364=EDGE_CURVE('',#313,#337,#45,.T.);
#374=EDGE_CURVE('',#313,#314,#21,.T.);
#377=EDGE_CURVE('',#337,#338,#37,.T.);
#379=EDGE_CURVE('',#314,#338,#68,.T.);
#390=EDGE_CURVE('',#314,#338,#53,.T.);
#402=EDGE_CURVE('',#314,#316,#60,.T.);
#404=EDGE_CURVE('',#316,#340,#91,.T.);
#406=EDGE_CURVE('',#338,#340,#75,.T.);
#420=EDGE_CURVE('',#316,#340,#83,.T.);
#434=EDGE_CURVE('',#319,#343,#99,.T.);
#436=EDGE_CURVE('',#319,#343,#114,.T.);
#446=EDGE_CURVE('',#319,#320,#106,.T.);
#448=EDGE_CURVE('',#320,#344,#137,.T.);
#450=EDGE_CURVE('',#343,#344,#121,.T.);
#464=EDGE_CURVE('',#320,#344,#129,.T.);
#474=EDGE_CURVE('',#323,#347,#145,.T.);
#476=EDGE_CURVE('',#323,#347,#160,.T.);
#490=EDGE_CURVE('',#323,#324,#152,.T.);
#492=EDGE_CURVE('',#324,#348,#197,.T.);
#494=EDGE_CURVE('',#347,#348,#167,.T.);
#508=EDGE_CURVE('',#324,#348,#182,.T.);
#518=EDGE_CURVE('',#324,#326,#174,.T.);
#521=EDGE_CURVE('',#348,#350,#189,.T.);
#523=EDGE_CURVE('',#326,#350,#221,.T.);
#534=EDGE_CURVE('',#326,#350,#205,.T.);
#546=EDGE_CURVE('',#326,#328,#213,.T.);
#548=EDGE_CURVE('',#328,#352,#245,.T.);
#550=EDGE_CURVE('',#350,#352,#229,.T.);
#564=EDGE_CURVE('',#328,#352,#237,.T.);
#578=EDGE_CURVE('',#331,#355,#253,.T.);
#580=EDGE_CURVE('',#331,#355,#268,.T.);
#590=EDGE_CURVE('',#331,#332,#260,.T.);
#592=EDGE_CURVE('',#332,#356,#307,.T.);
#594=EDGE_CURVE('',#355,#356,#275,.T.);
#608=EDGE_CURVE('',#332,#356,#291,.T.);
#618=EDGE_CURVE('',#332,#334,#283,.T.);
#621=EDGE_CURVE('',#356,#334,#299,.T.);
#637=CLOSED_SHELL('',(#368,#383,#396,#411,#424,#440,#455,#468,#484,#499,#512,
#527,#540,#555,#568,#584,#599,#612,#625,#636));
#638=MANIFOLD_SOLID_BREP('',#637);
#645=(LENGTH_UNIT()NAMED_UNIT(*)SI_UNIT(.MILLI.,.METRE.));
#647=(NAMED_UNIT(*)PLANE_ANGLE_UNIT()SI_UNIT($,.RADIAN.));
#650=(NAMED_UNIT(*)SI_UNIT($,.STERADIAN.)SOLID_ANGLE_UNIT());
#653=ADVANCED_BREP_SHAPE_REPRESENTATION('',(#638),#652);
#661=PRODUCT_DEFINITION('design','',#660,#657);
#662=PRODUCT_DEFINITION_SHAPE('','SHAPE FOR P70-1020045.',#661);
#663=SHAPE_DEFINITION_REPRESENTATION(#662,#653);
ENDSEC;
END-ISO-10303-21;
